<svg xmlns="http://www.w3.org/2000/svg" viewBox="0 0 299.86 102.95"><g id="Layer_2" data-name="Layer 2"><g id="Layer_1-2" data-name="Layer 1"><path d="M149,102.86q-71.82,0-143.65,0c-1.81,0-2.31-.4-2.41-2.28C2.5,92,1.85,83.35,1.28,74.72.87,68.36.5,62,0,55.66c-.11-1.5.52-1.58,1.68-1.46,6.57.7,13.15,1.36,19.72,2L45.2,58.65l24.34,2.47,23.6,2.36,24,2.46c7.92.8,15.86,1.57,23.78,2.38s15.73,1.62,23.6,2.43l23.23,2.38c7.68.8,15.35,1.63,23,2.44L233.61,78l22.85,2.39q11.52,1.22,23,2.43c6.33.66,12.66,1.35,19,1.94,1.41.14,1.47.66,1.11,1.84-1.5,4.88-3,9.77-4.31,14.7-.37,1.37-.95,1.69-2.27,1.69q-38.33-.08-76.65-.06-33.69,0-67.37,0Z"/><path d="M142.83,28.78q24-.66,48-1.32,29.76-.84,59.53-1.73c8.54-.24,17.07-.5,25.6-.56,5.34,0,8.44,3.4,10.51,7.81a121.15,121.15,0,0,1,6.88,19.07c2.33,8.3,4.57,16.62,6.36,25.06.26,1.24.13,1.43-1.15,1.29q-17.69-1.92-35.38-3.71c-10.2-1-20.4-2-30.61-3.09-10.51-1.06-21-2.18-31.52-3.22-10.89-1.07-21.78-2.06-32.66-3.08-10.15-1-20.31-1.87-30.45-2.87Q123.22,61,108.49,59.34c-8.71-1-17.41-2.05-26.11-3.15q-13.32-1.68-26.62-3.5-14.67-2-29.31-4.29A230.52,230.52,0,0,1,3.73,44.17c-3.52-.92-2.86-.69-1.49-3.32a65.68,65.68,0,0,1,4.29-6.91,2.89,2.89,0,0,1,2.57-1.4c11.5-.29,23-.66,34.5-1,14.9-.42,29.8-.79,44.7-1.2l51.19-1.43c1.11,0,2.23,0,3.34,0Z"/><path d="M15,24.34A54.53,54.53,0,0,1,41.41,9.64,318.22,318.22,0,0,1,80.19,2.91C104.76.06,129.39-.4,154.09.27c15.39.42,30.77,1.05,46.13,2,15.91,1,31.81,2.21,47.61,4.41,7.49,1,14.72,3,21.3,6.9a16.5,16.5,0,0,1,4.37,3.5C187.13,19,101.08,21,15,24.34Z"/></g></g></svg>