<svg xmlns="http://www.w3.org/2000/svg" viewBox="0 0 412.55 476.86"><g id="Layer_2" data-name="Layer 2"><g id="Layer_1-2" data-name="Layer 1"><path d="M121.32,476.86c-11-20.71-22.21-41.31-33-62.14A1050.11,1050.11,0,0,1,40.4,308.23,603.64,603.64,0,0,1,5,167.68,610.86,610.86,0,0,1,0,102.48C-.45,76.69,5.88,52.16,21,30.75,39.28,4.78,79.73-9,110.05,6.6c18.45,9.52,29.7,24.11,30.6,45.2.74,17.36-7.61,30.6-22.09,39.4-9.33,5.67-19.69,9.64-29.55,14.47a114.65,114.65,0,0,0-11,5.93c-8,5.05-9.69,11.84-5.16,20.08a87.63,87.63,0,0,0,5.35,7.72c-9-2.64-15.28-13.86-16.09-20.73-1-8.5,2.66-14.7,10-18.47A149.44,149.44,0,0,1,90,92.66c7.79-2.81,15-6.46,20.71-12.57,9.54-10.13,11.59-22.13,5.71-34-5.63-11.37-16.8-17.44-30.17-15.76-24.67,3.1-40.78,17.6-50.56,39.59-8.9,20-11.37,41.3-10.23,63,5.2,98.49,31.28,191.85,69.62,282.15,8.06,19,16.82,37.69,25.26,56.53.72,1.61,1.41,3.24,2.11,4.86Z"/><path d="M334.2,139.61c2.19-3.64,4.63-6.87,6.21-10.47,3-6.74,1.53-12.82-4.87-16.47C326.31,107.41,316.6,103,307,98.5c-10.38-4.83-20.25-10.23-27.06-19.84-14.74-20.8-9.4-49.33,11.88-65.61C317-6.23,350.12-2.48,374.33,14.29c20.28,14.05,29,35,34.47,57.77,5.32,22.22,4,44.68,1.92,67.12-5.43,57.66-18,113.72-38.52,167.9-21.14,55.7-47.9,108.73-76.66,160.8-1.53,2.77-3,5.55-4.58,8.31-.14.24-.44.38-1.34.27l7.23-15.58c23.71-51.08,44.68-103.21,60.3-157.39S383.08,194,386.56,137.6c1.57-25.47-.68-50.44-12.82-73.38-9.69-18.31-24.6-30.55-45.67-33.62-16.05-2.34-27.93,4.23-33.26,17.62s-1.18,27.13,11.82,36.39c4.8,3.41,10.54,5.55,15.94,8.07,6.31,2.93,13.09,5,19,8.6,8.15,4.89,10.24,12,7.54,21.18A28,28,0,0,1,334.2,139.61Z"/><path d="M284.08,476.42c5.32-13.22,10.81-26.37,15.91-39.66,19.25-50.17,32.63-101.76,36-155.57,1.31-20.94,1.44-41.94,2.25-62.91.13-3.3-1.15-5-3.87-6.71-19.25-12.13-40.83-16.81-62.9-19.68-15.34-2-30.77-3.3-46.32-5.53,6.7-.29,13.4-.71,20.11-.82,7.16-.13,14.33-.13,21.48.13,7,.24,14,.78,20.94,1.37s13.79,1.4,20.4,2.08c-3.54-5.53-7.55-10.62-10.28-16.32-4.95-10.3-4.18-20.29,3.5-29.37a46.91,46.91,0,0,0,6.21-9c3.05-6,1.59-10.21-4.89-12-9.6-2.65-19.35-5.25-29.21-6.34-46.53-5.19-93.11-5.54-139.59.75A169.91,169.91,0,0,0,110,122.18c-6.88,2-8.39,6.28-5.08,12.72a42.33,42.33,0,0,0,4.73,7c9.44,11.87,10.34,22.24,2.57,35.39-2.33,3.95-5.38,7.47-8.64,11.92,27.95-3.33,55.5-5.34,83.2-1.74-5.94.4-11.88.68-17.8,1.2-23.26,2-46.51,4.41-68.65,12.27-8.25,2.93-15.93,7.49-23.7,11.63A6.26,6.26,0,0,0,74,217.22c-1.88,79,11.56,155.13,41.56,228.29,4.09,10,8.12,19.95,11.55,30.26-.86-1.62-1.75-3.21-2.55-4.85C103.91,428.24,88.32,383.68,75.94,338,64.4,295.4,58.1,252,55,208c-.22-3,.92-4.21,3.52-5.54,10.49-5.37,21.37-10.27,31-16.92,12.73-8.78,16.57-20.81,12.2-33.48-1.32-3.83-3.92-7.25-6.14-10.72-1.16-1.81-2.88-3.24-4.18-5-5.22-7-4.36-13,3.75-16,11-4,22.49-7.63,34.06-9.23,54.45-7.54,109-7.67,163.26,1.61A114,114,0,0,1,315,119.33c10.61,4.2,12,10.81,4.1,19.12-5.72,6.05-9.67,12.68-10.17,21.09-.7,11.74,5.18,20.44,14.28,26.44s19.33,11,29.32,15.89c3.57,1.75,4.78,3.46,4.52,7.43A680.53,680.53,0,0,1,321.44,387c-9.81,28.69-20.66,56.93-34,84.19-.9,1.85-1.92,3.63-2.88,5.44Z"/><path d="M300.79,273.69h-5.42c-1.44-4.85-2.27-9.66-4.26-13.95-4.33-9.32-11.75-16-22-16.87-11.84-1.05-23.85-.24-36.15-.24V304c8.81,1,17.73,1,26.09,3.17,44.25,11.55,60.88,64.53,30.62,97.84-15.27,16.81-35.08,22-57,17.12-9.26-2.08-18-6.66-26.8-10.43a6.17,6.17,0,0,1-3-4.46c-.35-5.95-.14-11.93-.14-18.7,3.64,2.17,6.85,3.81,9.77,5.86,16.15,11.32,37,7.39,48.83-5.05,13.19-13.93,14.81-34.81,4-51.13-9.24-13.94-23-17.57-38.42-15.71-8.07,1-15.9,4-23.89,6.15V229.14h97.74Z"/><path d="M137.36,423.41v-5.68q0-74.72,0-149.41c0-13.43-4.74-24.1-16.72-30.7-3.84-2.12-8.35-3-12.89-4.6v-4.09h60.46V423.41Z"/></g></g></svg>