<svg width="121" height="101" viewBox="0 0 121 101" fill="none" xmlns="http://www.w3.org/2000/svg">
<g clip-path="url(#clip0_1447_10750)">
<path d="M17.1963 27.7481H1.52002V67.0064H17.1963C19.272 67.0224 21.2694 66.2152 22.7512 64.7616C24.233 63.308 25.0783 61.3264 25.102 59.2508V35.6238C25.102 33.5376 24.2743 31.5367 22.8006 30.0601C21.3269 28.5836 19.3275 27.7521 17.2413 27.7481M9.35068 59.2508V35.6238H13.296C13.8088 35.6218 14.3168 35.7213 14.791 35.9166C15.2651 36.1119 15.6958 36.3992 16.0584 36.7617C16.421 37.1243 16.7082 37.5551 16.9035 38.0292C17.0988 38.5033 17.1983 39.0113 17.1963 39.5241V55.2904C17.2023 55.8084 17.1054 56.3224 16.9113 56.8026C16.7172 57.2828 16.4298 57.7198 16.0656 58.0881C15.7014 58.4565 15.2678 58.7489 14.7898 58.9485C14.3118 59.1481 13.799 59.2508 13.281 59.2508H9.35068Z" fill="#0090D7"/>
<path d="M111.659 67.0064V31.6784C111.655 30.6452 112.059 29.6522 112.784 28.916C113.509 28.1798 114.496 27.76 115.529 27.7481H119.475V63.1661C119.475 64.2059 119.063 65.2033 118.329 65.94C117.595 66.6766 116.599 67.0925 115.559 67.0964H111.659V67.0064Z" fill="#0090D7"/>
<path d="M78.0272 49.155C76.2218 50.9586 73.9445 52.2168 71.4567 52.7853C71.8582 53.2714 72.1369 53.847 72.2692 54.4634C72.4015 55.0798 72.3836 55.719 72.217 56.3271C72.0504 56.9351 71.7399 57.4942 71.3119 57.957C70.8838 58.4199 70.3506 58.7729 69.7574 58.9865C69.1642 59.2 68.5283 59.2676 67.9035 59.1837C67.2786 59.0999 66.6831 58.8669 66.1672 58.5045C65.6513 58.1421 65.2302 57.6609 64.9393 57.1015C64.6485 56.5421 64.4965 55.921 64.4961 55.2906V53.1154H56.5604V63.1662C56.5916 64.1956 57.0226 65.1724 57.762 65.8893C58.5013 66.6063 59.4909 67.007 60.5208 67.0065H68.3664C70.4944 67.0089 72.5835 66.436 74.4126 65.3485C76.2417 64.261 77.7429 62.6994 78.7574 60.8288C79.7719 58.9582 80.2619 56.8481 80.1756 54.7219C80.0893 52.5957 79.43 50.5323 78.2673 48.75L77.9672 49.05" fill="#0090D7"/>
<path d="M64.4361 39.5541C64.4351 38.8204 64.638 38.1009 65.0221 37.4758C65.4062 36.8507 65.9564 36.3445 66.6113 36.0138V27.7481H56.5604V41.7143H64.4211L64.4361 39.5541Z" fill="#0090D7"/>
<path d="M36.8933 43.2894V27.7481H33.0229C31.9831 27.7441 30.9841 28.1523 30.2446 28.8834C29.5052 29.6144 29.0855 30.6087 29.0776 31.6485V41.7443H33.0229C34.4791 41.7093 35.8908 42.2481 36.9533 43.2444" fill="#0090D7"/>
<path d="M52.6454 41.7143V31.6784C52.6375 30.6359 52.2188 29.6385 51.4802 28.9027C50.7416 28.1669 49.7426 27.752 48.7 27.7481H44.7697V43.2894C45.8365 42.2999 47.2452 41.7622 48.7 41.7893L52.6454 41.7143Z" fill="#0090D7"/>
<path d="M84.1761 67.0068H88.0914C88.6088 67.0087 89.1215 66.9085 89.6001 66.7119C90.0787 66.5153 90.5137 66.2261 90.8803 65.8609C91.2468 65.4958 91.5377 65.0618 91.7361 64.584C91.9346 64.1062 92.0368 63.5938 92.0368 63.0764V53.1156H84.1761V67.0068Z" fill="#0090D7"/>
<path d="M91.9767 41.7143V37.3789V31.6784C91.9762 30.2144 92.5404 28.8065 93.5519 27.7481L91.9767 27.7481C89.901 27.7679 87.917 28.6064 86.4562 30.0812C84.9954 31.556 84.176 33.5479 84.1761 35.6238V43.2894C85.2383 42.3022 86.6415 41.7645 88.0914 41.7893L91.9767 41.7143Z" fill="#0090D7"/>
<path d="M99.9736 53.115H99.8536V63.1658C99.8536 64.2096 100.267 65.2108 101.004 65.9503C101.741 66.6898 102.74 67.1072 103.784 67.1111H107.714V49.1096C106.849 50.3681 105.694 51.4009 104.348 52.1213C103.001 52.8416 101.501 53.2287 99.9736 53.25" fill="#0090D7"/>
<path d="M68.3658 27.7481V35.6238C69.3812 35.6272 70.3562 36.0221 71.0879 36.7262C71.8197 37.4302 72.2517 38.3893 72.2942 39.4039C72.3367 40.4185 71.9864 41.4103 71.3162 42.1732C70.646 42.936 69.7074 43.411 68.6958 43.4994H48.6991C48.1837 43.4975 47.6729 43.5973 47.1962 43.7932C46.7194 43.989 46.286 44.2771 45.9209 44.6409C45.5557 45.0047 45.266 45.437 45.0683 45.913C44.8706 46.389 44.7688 46.8993 44.7688 47.4148V59.2508H40.7785C39.7361 59.2508 38.7364 58.8367 37.9993 58.0996C37.2622 57.3625 36.8481 56.3628 36.8481 55.3204V47.4148C36.8481 46.3764 36.4356 45.3805 35.7013 44.6462C34.9671 43.9119 33.9712 43.4994 32.9328 43.4994H29.0175V59.2508C29.0412 61.3239 29.8814 63.3041 31.3558 64.7616C32.8302 66.2192 34.8199 67.0366 36.8931 67.0364H44.7688C46.8575 67.0364 48.8608 66.2067 50.3377 64.7297C51.8147 63.2527 52.6445 61.2495 52.6445 59.1608V51.2851H68.3658C71.3076 51.0856 74.0686 49.7938 76.107 47.6634C78.1454 45.5329 79.3141 42.7176 79.3836 39.7699C79.4531 36.8222 78.4185 33.9549 76.4827 31.7307C74.547 29.5065 71.8499 28.0861 68.9208 27.7481H68.3658Z" fill="#BA2C87"/>
<path d="M66.2347 53.0555V55.2307C66.2347 55.7797 66.4529 56.3063 66.8411 56.6945C67.2293 57.0827 67.7559 57.3008 68.3049 57.3008C68.8707 57.3094 69.4179 57.0987 69.8318 56.7128C70.2457 56.3269 70.4942 55.7957 70.5251 55.2307C70.5538 54.6839 70.3646 54.1481 69.9992 53.7404C69.6337 53.3327 69.1216 53.0865 68.5749 53.0555H66.2347Z" fill="#BA2C87"/>
<path d="M41.4676 68.6263V70.6815C41.4646 71.0922 41.5839 71.4945 41.8102 71.8372C42.0365 72.18 42.3597 72.4476 42.7386 72.6062C43.1174 72.7647 43.5349 72.807 43.9379 72.7276C44.3408 72.6482 44.7111 72.4507 45.0015 72.1603C45.2919 71.8699 45.4894 71.4996 45.5688 71.0967C45.6482 70.6937 45.6059 70.2762 45.4474 69.8973C45.2889 69.5185 45.0212 69.1953 44.6785 68.969C44.3357 68.7426 43.9334 68.6234 43.5227 68.6263H41.4676Z" fill="#BA2C87"/>
<path d="M35.6488 68.6263V70.6815C35.6458 71.0915 35.7647 71.4932 35.9904 71.8356C36.216 72.178 36.5383 72.4457 36.9163 72.6047C37.2943 72.7637 37.711 72.8068 38.1136 72.7287C38.5161 72.6505 38.8864 72.4545 39.1774 72.1656C39.4684 71.8767 39.6671 71.5079 39.7482 71.1059C39.8293 70.7039 39.7892 70.2869 39.633 69.9077C39.4767 69.5286 39.2114 69.2044 38.8706 68.9762C38.5299 68.7481 38.1291 68.6263 37.719 68.6263H35.6488Z" fill="#BA2C87"/>
<path d="M84.1761 47.4148C84.1761 46.3764 84.5886 45.3805 85.3229 44.6462C86.0571 43.9119 87.053 43.4994 88.0914 43.4994H96.0271C97.0715 43.575 98.1031 43.2327 98.895 42.5476C99.687 41.8626 100.174 40.891 100.25 39.8466C100.326 38.8023 99.9832 37.7706 99.2981 36.9787C98.6131 36.1867 97.6415 35.6994 96.5971 35.6238H93.8969V31.6784C93.8962 30.6615 94.2896 29.6839 94.9945 28.951C95.6995 28.2181 96.6611 27.7869 97.6772 27.7481H99.8524C101.935 27.7481 103.932 28.5742 105.405 30.0451C106.879 31.5161 107.709 33.5116 107.713 35.5938V43.4994C107.709 45.583 106.88 47.5801 105.406 49.0534C103.933 50.5267 101.936 51.3561 99.8524 51.3601H84.1761V47.4148Z" fill="#BA2C87"/>
</g>
<defs>
<clipPath id="clip0_1447_10750">
<rect width="118" height="45.0038" fill="white" transform="translate(1.52002 27.7481)"/>
</clipPath>
</defs>
</svg>
