<svg width="120" height="100" viewBox="0 0 120 100" fill="none" xmlns="http://www.w3.org/2000/svg">
<path d="M60 85C79.33 85 95 69.33 95 50C95 30.67 79.33 15 60 15C40.67 15 25 30.67 25 50C25 69.33 40.67 85 60 85Z" fill="black"/>
<path d="M83.0208 55.634H83.9121V55.7905H83.5559V56.5491H83.3771V55.7905H83.0208V55.634ZM41.2734 59.1502H39.2576C38.8036 59.1502 38.5814 58.9016 38.5814 58.4056V57.6108C38.5814 57.3831 38.6373 57.1987 38.7672 57.0506C38.8888 56.9025 39.0508 56.8284 39.2576 56.8284H40.839C41.2106 56.8284 41.4648 57.0087 41.578 57.3747L41.7973 58.1444H43.246V57.295C43.246 56.7293 43.0602 56.2641 42.6788 55.8855C42.2932 55.5111 41.8224 55.3225 41.2734 55.3225H38.9321C38.3817 55.3225 37.9025 55.5167 37.5044 55.9106C37.1188 56.3004 36.9232 56.7712 36.9232 57.3188V58.6836C36.9232 59.241 37.1188 59.7146 37.5044 60.1086C37.9011 60.5025 38.3803 60.6953 38.9321 60.6953H40.9493C41.395 60.6953 41.6185 60.9537 41.6185 61.4608V62.4946C41.6185 62.7125 41.5584 62.9039 41.4397 63.0478C41.3111 63.1987 41.1491 63.2699 40.9493 63.2699H39.3442C38.9391 63.2699 38.6932 63.0855 38.5954 62.7265L38.3817 61.8562H36.9232V62.795C36.9232 63.3677 37.109 63.8329 37.4876 64.2101C37.8648 64.5859 38.3356 64.7745 38.8986 64.7745H41.272C41.821 64.7745 42.3002 64.5775 42.6914 64.1836C43.0769 63.7966 43.2697 63.3202 43.2697 62.76V61.1605C43.2697 60.6129 43.0769 60.1449 42.6816 59.7453C42.289 59.3472 41.8168 59.1474 41.272 59.1474L41.2734 59.1502ZM50.935 55.912C51.3233 56.2976 51.5217 56.7698 51.5217 57.3146V59.3011C51.5217 59.8571 51.3233 60.3293 50.935 60.719C50.5354 61.1088 50.0563 61.3072 49.503 61.3072H46.8977V64.7773H45.2283V55.3239H49.503C50.0563 55.3239 50.5354 55.5181 50.935 55.912ZM49.8495 57.6247C49.8495 57.3942 49.7838 57.214 49.6595 57.0673C49.5366 56.9193 49.3717 56.8494 49.1776 56.8494H46.8977V59.7831H49.1776C49.3703 59.7831 49.5352 59.709 49.6595 59.5637C49.7852 59.4143 49.8495 59.2327 49.8495 59.0049V57.6247ZM66.4834 60.8713L68.1416 64.7773H66.3646L64.8251 61.0781H63.2396V64.7773H61.5674V55.3239H65.7472C66.3074 55.3239 66.7823 55.5181 67.1707 55.912C67.5604 56.2976 67.7588 56.7726 67.7588 57.3146V58.963C67.7588 59.3905 67.6401 59.7831 67.4054 60.1267C67.1595 60.4676 66.848 60.7107 66.4848 60.8713H66.4834ZM66.081 57.6247C66.081 57.3998 66.0238 57.214 65.9022 57.0673C65.7807 56.9193 65.6214 56.8494 65.4273 56.8494H63.2396V59.554H65.4273C65.62 59.554 65.7807 59.4827 65.9022 59.3444C66.0238 59.1991 66.081 59.0147 66.081 58.7898V57.6247ZM68.8121 56.8494H71.215V64.7773H72.8885V56.8494H75.3137V55.3239H68.8121V56.8494ZM80.8765 59.1502H78.8648C78.4178 59.1502 78.1901 58.9016 78.1901 58.4056V57.6108C78.1901 57.3831 78.2529 57.1987 78.3731 57.0506C78.4918 56.9025 78.6609 56.8284 78.8634 56.8284H80.449C80.8206 56.8284 81.0693 57.0087 81.1866 57.3747L81.4059 58.1444H82.8588V57.295C82.8588 56.7293 82.666 56.2641 82.2874 55.8855C81.9019 55.5111 81.4367 55.3225 80.8765 55.3225H78.5421C77.9861 55.3225 77.507 55.5167 77.1214 55.9106C76.733 56.3004 76.5305 56.7712 76.5305 57.3188V58.6836C76.5305 59.241 76.733 59.7146 77.1214 60.1086C77.507 60.5025 77.9861 60.6953 78.5421 60.6953H80.5552C81.0064 60.6953 81.2271 60.9537 81.2271 61.4608V62.4946C81.2271 62.7125 81.1671 62.9039 81.0483 63.0478C80.9254 63.1987 80.7577 63.2699 80.5552 63.2699H78.9528C78.5505 63.2699 78.306 63.0855 78.2041 62.7265L77.9861 61.8562H76.5305V62.795C76.5305 63.3677 76.7219 63.8329 77.0976 64.2101C77.4818 64.5859 77.9456 64.7745 78.5114 64.7745H80.8765C81.4367 64.7745 81.9116 64.5775 82.307 64.1836C82.6954 63.7966 82.8909 63.3202 82.8909 62.76V61.1605C82.8909 60.6129 82.6954 60.1449 82.2888 59.7453C81.9005 59.3472 81.4283 59.1474 80.8779 59.1474L80.8765 59.1502ZM85.0004 55.634L84.64 56.1872L84.2823 55.634H84.1287V56.5491H84.2823V55.9847C84.2823 55.9525 84.2628 55.9218 84.2628 55.8855C84.2823 55.9176 84.3033 55.9525 84.3186 55.9777L84.6162 56.4345H84.6441L84.9347 55.9861C84.9585 55.9539 84.9627 55.9232 84.9794 55.8869C84.9752 55.933 84.9752 55.9623 84.9752 55.9861V56.5505H85.1401V55.6354H85.0004V55.634ZM58.9383 55.905C59.3406 56.2864 59.5306 56.7656 59.5306 57.3132V62.7461C59.5306 63.3216 59.3406 63.7966 58.9383 64.185C58.5429 64.5789 58.0777 64.7759 57.5147 64.7759H55.2572C54.6942 64.7759 54.2179 64.5789 53.8253 64.185C53.4342 63.798 53.2344 63.3216 53.2344 62.7461V57.3132C53.2344 56.7712 53.4342 56.2976 53.8253 55.9106C54.2179 55.5167 54.6956 55.3225 55.2572 55.3225H57.5147C58.0777 55.3225 58.5429 55.5167 58.9383 55.905ZM57.8626 57.6247C57.8626 57.3998 57.7997 57.214 57.6698 57.0673C57.5469 56.9193 57.3834 56.8494 57.1906 56.8494H55.5883C55.3788 56.8494 55.2195 56.9207 55.0938 57.0673C54.9722 57.214 54.915 57.3998 54.915 57.6247V62.4709C54.915 62.6902 54.9722 62.8732 55.0938 63.0213C55.2195 63.1735 55.3802 63.2532 55.5883 63.2532H57.1906C57.3834 63.2532 57.5469 63.1749 57.6698 63.0213C57.7997 62.8732 57.8626 62.6902 57.8626 62.4709V57.6247ZM64.9118 31.1966H46.92L44.1694 35.572L62.1555 35.5622L64.9132 31.1966H64.9118ZM71.7276 44.3157H69.0301L66.2626 48.7008H74.4923L77.2583 53.0734H82.511L68.59 31.0471L57.4072 48.7036H45.1752L47.9817 44.3227H55.5785L58.3487 39.9473H41.4033L38.6359 44.3227H42.7039L37.1621 53.0789L59.9483 53.0734L68.5914 39.3438L71.729 44.3157H71.7276Z" fill="white"/>
</svg>
