<?xml version="1.0" encoding="UTF-8"?>
<svg id="_图层_1" data-name="图层 1" xmlns="http://www.w3.org/2000/svg" viewBox="0 0 1920 1080">
  <defs>
    <style>
      .cls-1 {
        fill: #231815;
      }

      .cls-1, .cls-2, .cls-3 {
        stroke-width: 0px;
      }

      .cls-2 {
        fill: #6fba2c;
      }

      .cls-3 {
        fill: #004098;
      }
    </style>
  </defs>
  <g>
    <polygon class="cls-1" points="135.42 828.7 174.39 701.77 134 701.77 86.75 855.69 188.81 855.69 197.84 828.7 135.42 828.7"/>
    <polygon class="cls-1" points="256.31 701.77 209.05 855.69 249.99 855.69 297.23 701.77 256.31 701.77"/>
    <polygon class="cls-1" points="1462.4 700.13 1409.29 856.07 1450.21 856.07 1503.31 700.13 1462.4 700.13"/>
    <polygon class="cls-1" points="417.46 701.77 387.74 791.2 364.68 701.75 324.49 701.75 277.25 855.69 314.71 855.69 344.36 767.9 364.37 855.69 407.68 855.69 454.93 701.77 417.46 701.77"/>
    <path class="cls-1" d="m453.24,782.91c-3.12,10.16-4.64,18.76-4.64,26.42.01,8.56,1.85,15.99,5.71,23.57,4.58,8.84,10.97,15.07,20,19.29,9.03,4.19,20.81,6.28,35.87,6.3,22.9-.02,44.72-4.33,68.4-14.97l22.22-72.38h-62.91l-8.03,25.63h23.23l-9.8,31.85-1.43.5-.34.11c-6.18,2.04-12.79,2.49-19.05,2.49-8.13.02-16.03-1.26-20.72-5.94-4.7-4.66-8.29-10.44-8.26-18.59h0c0-7.38,1.61-16.06,4.74-26.25,5.6-18.29,13.94-31.33,22.74-40.25,8.78-8.96,21.78-13.18,34.97-13.15h.04c13.4.02,24.75,1.56,33.1,9.31l28.07-21.16c-12.69-10.73-30.85-16.44-52.45-16.44-16.4,0-27.97,1.95-43.33,8.05-33.86,13.43-57.84,42.11-68.13,75.63Z"/>
    <polygon class="cls-1" points="1024.17 701.67 994.49 791.12 971.42 701.67 931.22 701.67 883.97 855.6 921.45 855.6 951.07 767.79 971.1 855.6 1014.4 855.6 1061.64 701.67 1024.17 701.67"/>
    <path class="cls-1" d="m1057.87,782.82c-3.12,10.15-4.65,18.73-4.65,26.4.01,8.57,1.86,16,5.71,23.59,4.59,8.82,10.97,15.04,20.01,19.26,9.02,4.21,20.8,6.31,35.87,6.31,22.9,0,44.71-4.33,68.4-14.97l22.21-72.37h-63.34l-7.59,25.6h23.21l-9.78,31.87-1.45.49-.32.12c-6.19,2.02-12.78,2.49-19.06,2.49-8.14.01-16.03-1.27-20.73-5.94-4.68-4.67-8.26-10.44-8.24-18.59v-.02h0c0-7.38,1.62-16.06,4.73-26.24,5.62-18.27,13.94-31.33,22.74-40.25,8.77-8.94,21.78-13.18,34.97-13.14h.07c13.37.03,24.72,1.54,33.09,9.29l28.08-21.15c-12.69-10.73-30.85-16.45-52.47-16.45-16.39.02-32.2,1.57-47.55,7.64-33.87,13.42-53.63,42.53-63.9,76.05Z"/>
    <polygon class="cls-1" points="651.26 828.7 690.23 701.75 649.83 701.75 602.59 855.69 704.67 855.69 713.66 828.7 651.26 828.7"/>
    <g>
      <path class="cls-1" d="m795.03,833.09c-.4-.02-.69-.1-.9-.16.17.06.5.16.9.16Z"/>
      <path class="cls-1" d="m793.58,832.67c.05.02.08.05.17.1-.11-.07-.17-.11-.17-.11h0Z"/>
      <path class="cls-1" d="m882.72,712.87c-8.65-8.28-22.96-13.86-45.71-13.91-46.94.07-90.3,28.7-107.43,84.32-3.07,9.96-4.55,19.06-4.55,27.16.06,14.97,4.92,26.39,14.58,34.38,9.68,7.98,24.59,12.6,44.99,12.63,31.97-.03,54.74-10.37,71.53-26.24,16.76-15.89,27.49-37.52,34.45-60.16,2.65-8.62,4.26-17.58,4.26-26.04-.05-12.57-3.48-23.88-12.12-32.15Zm-32.98,32.63c-.02,8.09-2.18,18.56-6.5,32.71-6.34,20.71-12.57,34.04-20.22,42.49-6.92,7.69-15.2,10.96-24.63,11.46v.07h-3.06c-6.92-.02-13.1-1.17-17.79-5.08-4.7-3.98-6.94-10.26-6.92-18.53v-.11c.03-8.1,1.99-18.42,6.15-31.96,4.78-15.55,11.01-28.53,19.07-37.81,7.35-8.49,16.47-13.86,27.04-14.69v-.12h2.96c6.9.02,12.83.99,17.35,4.57,4.53,3.6,6.57,9.42,6.56,16.83v.16Z"/>
    </g>
  </g>
  <path class="cls-1" d="m1297.82,856.07l41.87-129.55h-44.95l8.52-26.39h123.92l-8.52,26.39h-42.8l-41.87,129.55h-36.16Z"/>
  <path class="cls-1" d="m1492.57,856.07l50.4-155.94h66.26c16.68,0,28.32,1.4,34.97,4.2,6.66,2.82,11.09,7.79,13.32,14.95,2.22,7.16,1.83,15.35-1.12,24.58-3.8,11.69-10.36,21.35-19.71,28.99-9.34,7.62-21.18,12.43-35.5,14.41,5.52,3.98,9.73,8.32,12.64,13.08,2.88,4.75,6.14,13.19,9.73,25.32l9.2,30.42h-37.64l-11.81-33.94c-4.16-12.12-7.22-19.75-9.17-22.92-1.97-3.15-4.42-5.31-7.38-6.48-2.96-1.18-8.05-1.76-15.29-1.76h-4.17l-21.04,65.1h-33.71Zm62.79-89.98h21.09c15.1,0,24.75-.64,28.91-1.92,4.16-1.27,7.82-3.48,10.95-6.6,3.14-3.13,5.47-7.02,6.97-11.7,1.71-5.25,1.67-9.48-.09-12.71-1.75-3.22-5.05-5.26-9.87-6.12-2.45-.35-10.05-.52-22.82-.52h-22.36l-12.79,39.57Z"/>
  <path class="cls-1" d="m1667.23,856.07l50.39-155.94h115.63l-8.53,26.39h-80.24l-11.16,34.55h74.39l-8.49,26.28h-74.39l-13.72,42.44h83.21l-8.47,26.27h-118.61Z"/>
  <g>
    <path class="cls-3" d="m490.35,489.75c10.51,61.74,97.9,102.16,223.35,114.68l9.01-28.77c-79.45-18.03-128.66-54.51-136.58-100.94-15.03-88.05,129.71-195.87,359.51-236.67l6.3-19.9c-269.6,42.66-479.61,165.76-461.59,271.6Z"/>
    <polygon class="cls-3" points="846.14 559.76 931.99 283.49 836.24 283.49 729.2 629.05 1056.32 629.05 1077.46 559.76 846.14 559.76"/>
    <polygon class="cls-2" points="992.78 468.44 1083.32 175.63 987.63 175.6 875.52 537.65 1207.64 537.65 1229.23 468.44 992.78 468.44"/>
    <path class="cls-3" d="m1446.46,322.24c-6.9-43.16-51.42-76.36-120.26-96.64-60.72-17.88-138.97-26.27-228.72-22.55l-7.08,23.4c100.08.86,173.96,20.6,220.34,53.26,23.98,16.89,38.74,38.67,42.59,62.55,7.96,49.52-34.43,104.53-108.74,147.91l-10.73,34.37c137.52-57.18,223.56-133.76,212.61-202.31Z"/>
  </g>
</svg>