<?xml version="1.0" encoding="UTF-8"?><svg id="Capa_1" xmlns="http://www.w3.org/2000/svg" viewBox="0 0 120 100"><defs><style>.cls-1{fill:#53a8a5;}.cls-2{fill:#1f1e21;}.cls-3{fill:#afb4b9;}.cls-4{fill:#f9dd00;}.cls-5{fill:#bb0062;}</style></defs><path class="cls-2" d="M21.08,86.63h-1.04v-.48h2.58v.48h-1.04v3.05h-.5v-3.05Z"/><path class="cls-2" d="M24.27,89.73c-.4,0-.72-.13-.95-.4-.23-.27-.35-.65-.35-1.14v-2.04h.5v2.04c0,.34.07.61.22.79.15.18.34.27.58.27s.43-.09.58-.27c.15-.18.22-.44.22-.79v-2.04h.5v2.04c0,.49-.12.87-.35,1.14-.23.27-.55.4-.95.4Z"/><path class="cls-2" d="M27.16,86.15h1.45c.31,0,.56.09.73.26s.26.42.26.72c0,.17-.04.32-.11.46s-.18.23-.31.3c.13.06.24.17.34.31.09.14.14.31.14.5,0,.31-.08.55-.26.72-.17.17-.41.26-.73.26h-1.5v-3.53ZM28.57,87.69c.15,0,.28-.05.38-.14.1-.09.14-.22.14-.39s-.05-.29-.14-.39c-.1-.09-.22-.14-.38-.14h-.92v1.06h.92ZM28.62,89.2c.15,0,.28-.05.38-.14.1-.09.14-.22.14-.39s-.05-.29-.14-.39c-.1-.09-.22-.14-.38-.14h-.97v1.06h.97Z"/><path class="cls-2" d="M30.16,86.15h.5v3.53h-.5v-3.53Z"/><path class="cls-2" d="M31.31,86.15h2.13v.48h-1.63v1.03h1.54v.48h-1.54v1.06h1.68v.48h-2.17v-3.53Z"/><path class="cls-2" d="M34.01,86.15h.68l1.54,2.83h.02v-2.83h.5v3.53h-.69l-1.54-2.83h-.02v2.83h-.5v-3.53Z"/><path class="cls-2" d="M37.41,86.15h2.13v.48h-1.63v1.03h1.54v.48h-1.54v1.06h1.68v.48h-2.17v-3.53Z"/><path class="cls-2" d="M41.12,89.73c-.34,0-.63-.09-.85-.27-.22-.18-.36-.43-.4-.74h.5c.09.35.35.53.76.53.25,0,.43-.05.55-.15.12-.1.18-.24.18-.4,0-.1-.03-.19-.08-.25-.05-.06-.13-.12-.21-.16s-.19-.07-.3-.1c-.11-.03-.23-.06-.35-.09-.12-.03-.23-.07-.34-.12s-.21-.11-.3-.18c-.09-.08-.16-.17-.21-.29-.05-.11-.08-.26-.08-.43,0-.14.03-.28.08-.4.05-.12.13-.22.23-.31.1-.09.22-.15.37-.2.14-.05.3-.07.48-.07.33,0,.6.08.8.24.2.16.33.38.39.66h-.5c-.05-.13-.13-.23-.24-.31-.11-.08-.26-.12-.45-.12-.21,0-.38.05-.49.15-.11.1-.17.22-.17.36s.05.26.14.34c.09.08.21.14.35.18.14.05.3.09.46.13s.32.09.46.16c.14.07.26.17.35.29.09.12.14.3.14.51,0,.14-.03.27-.08.4-.06.13-.14.24-.24.33-.11.09-.24.17-.39.22s-.33.08-.53.08Z"/><path class="cls-2" d="M43.48,86.63h-1.04v-.48h2.58v.48h-1.04v3.05h-.5v-3.05Z"/><path class="cls-2" d="M45.89,86.15h.59l1.23,3.53h-.52l-.27-.81h-1.46l-.27.81h-.52l1.23-3.53ZM46.75,88.39l-.56-1.64h-.02l-.56,1.64h1.14Z"/><path class="cls-2" d="M47.97,86.15h1.32c.16,0,.31.03.44.08s.24.13.34.22c.09.09.16.21.21.34.05.13.08.28.08.45,0,.18-.03.34-.08.47-.06.13-.12.24-.21.33-.08.09-.17.15-.27.2-.1.05-.19.07-.27.09l.9,1.36h-.57l-.9-1.36h-.5v1.36h-.5v-3.53ZM49.24,87.84c.19,0,.34-.05.45-.16.11-.11.17-.25.17-.45s-.06-.34-.17-.45c-.11-.11-.26-.16-.45-.16h-.78v1.21h.78Z"/><path class="cls-2" d="M51.84,86.15h2.13v.48h-1.63v1.03h1.54v.48h-1.54v1.06h1.68v.48h-2.17v-3.53Z"/><path class="cls-2" d="M55.55,89.73c-.34,0-.63-.09-.85-.27-.22-.18-.36-.43-.4-.74h.5c.09.35.35.53.76.53.25,0,.43-.05.55-.15.12-.1.18-.24.18-.4,0-.1-.03-.19-.08-.25-.05-.06-.13-.12-.21-.16s-.19-.07-.3-.1c-.11-.03-.23-.06-.35-.09-.12-.03-.23-.07-.34-.12s-.21-.11-.3-.18c-.09-.08-.16-.17-.21-.29-.05-.11-.08-.26-.08-.43,0-.14.03-.28.08-.4.05-.12.13-.22.23-.31.1-.09.22-.15.37-.2.14-.05.3-.07.48-.07.33,0,.6.08.8.24.2.16.33.38.39.66h-.5c-.05-.13-.13-.23-.24-.31-.11-.08-.26-.12-.45-.12-.21,0-.38.05-.49.15-.11.1-.17.22-.17.36s.05.26.14.34c.09.08.21.14.35.18.14.05.3.09.46.13s.32.09.46.16c.14.07.26.17.35.29.09.12.14.3.14.51,0,.14-.03.27-.08.4-.06.13-.14.24-.24.33-.11.09-.24.17-.39.22s-.33.08-.53.08Z"/><path class="cls-2" d="M58.2,86.15h.68l1.54,2.83h.02v-2.83h.5v3.53h-.69l-1.54-2.83h-.02v2.83h-.5v-3.53Z"/><path class="cls-2" d="M62.88,89.73c-.4,0-.72-.13-.95-.4-.23-.27-.35-.65-.35-1.14v-2.04h.5v2.04c0,.34.07.61.22.79.15.18.34.27.58.27s.43-.09.58-.27c.15-.18.22-.44.22-.79v-2.04h.5v2.04c0,.49-.12.87-.35,1.14-.23.27-.55.4-.95.4Z"/><path class="cls-2" d="M64.81,86.15h2.13v.48h-1.63v1.03h1.54v.48h-1.54v1.06h1.68v.48h-2.17v-3.53Z"/><path class="cls-2" d="M68.52,89.73c-.34,0-.63-.09-.85-.27-.22-.18-.36-.43-.4-.74h.5c.09.35.35.53.76.53.25,0,.43-.05.55-.15.12-.1.18-.24.18-.4,0-.1-.03-.19-.08-.25-.05-.06-.13-.12-.21-.16s-.19-.07-.3-.1c-.11-.03-.23-.06-.35-.09-.12-.03-.23-.07-.34-.12s-.21-.11-.3-.18c-.09-.08-.16-.17-.21-.29-.05-.11-.08-.26-.08-.43,0-.14.03-.28.08-.4.05-.12.13-.22.23-.31.1-.09.22-.15.37-.2.14-.05.3-.07.48-.07.33,0,.6.08.8.24.2.16.33.38.39.66h-.5c-.05-.13-.13-.23-.24-.31-.11-.08-.26-.12-.45-.12-.21,0-.38.05-.49.15-.11.1-.17.22-.17.36s.05.26.14.34c.09.08.21.14.35.18.14.05.3.09.46.13s.32.09.46.16c.14.07.26.17.35.29.09.12.14.3.14.51,0,.14-.03.27-.08.4-.06.13-.14.24-.24.33-.11.09-.24.17-.39.22s-.33.08-.53.08Z"/><path class="cls-2" d="M70.88,86.63h-1.04v-.48h2.58v.48h-1.04v3.05h-.5v-3.05Z"/><path class="cls-2" d="M72.8,86.15h1.32c.16,0,.31.03.44.08s.24.13.34.22c.09.09.16.21.21.34.05.13.08.28.08.45,0,.18-.03.34-.08.47-.06.13-.12.24-.21.33-.08.09-.17.15-.27.2-.1.05-.19.07-.27.09l.9,1.36h-.57l-.9-1.36h-.5v1.36h-.5v-3.53ZM74.07,87.84c.19,0,.34-.05.45-.16.11-.11.17-.25.17-.45s-.06-.34-.17-.45c-.11-.11-.26-.16-.45-.16h-.78v1.21h.78Z"/><path class="cls-2" d="M77.07,89.73c-.22,0-.43-.04-.61-.12-.19-.08-.34-.2-.48-.35-.13-.15-.24-.34-.31-.57-.07-.23-.11-.49-.11-.78s.04-.55.11-.78c.07-.23.18-.42.31-.57.13-.15.29-.27.48-.35.19-.08.39-.12.61-.12s.43.04.62.12.34.2.48.35c.13.15.23.34.31.57.07.23.11.48.11.78s-.04.55-.11.78-.17.42-.31.57c-.13.15-.29.27-.48.35s-.39.12-.62.12ZM77.07,89.25c.15,0,.28-.03.41-.09.12-.06.23-.14.32-.25s.16-.25.21-.42c.05-.17.08-.36.08-.58s-.03-.42-.08-.58c-.05-.17-.12-.31-.21-.42s-.2-.2-.32-.25c-.12-.06-.26-.09-.41-.09s-.28.03-.41.09c-.12.06-.23.14-.32.25s-.16.25-.21.42c-.05.17-.08.36-.08.58s.03.42.08.58c.05.17.12.31.21.42s.2.2.32.25c.12.06.26.09.41.09Z"/><path class="cls-2" d="M80.64,86.63h-1.04v-.48h2.58v.48h-1.04v3.05h-.5v-3.05Z"/><path class="cls-2" d="M82.56,86.15h1.32c.16,0,.31.03.44.08s.24.13.34.22c.09.09.16.21.21.34.05.13.08.28.08.45,0,.18-.03.34-.08.47-.06.13-.12.24-.21.33-.08.09-.17.15-.27.2-.1.05-.19.07-.27.09l.9,1.36h-.57l-.9-1.36h-.5v1.36h-.5v-3.53ZM83.83,87.84c.19,0,.34-.05.45-.16.11-.11.17-.25.17-.45s-.06-.34-.17-.45c-.11-.11-.26-.16-.45-.16h-.78v1.21h.78Z"/><path class="cls-2" d="M86.31,86.15h.59l1.23,3.53h-.52l-.27-.81h-1.46l-.27.81h-.52l1.23-3.53ZM87.18,88.39l-.56-1.64h-.02l-.56,1.64h1.14Z"/><path class="cls-2" d="M88.39,86.15h1.45c.31,0,.56.09.73.26s.26.42.26.72c0,.17-.04.32-.11.46s-.18.23-.31.3c.13.06.24.17.34.31.09.14.14.31.14.5,0,.31-.08.55-.26.72-.17.17-.41.26-.73.26h-1.5v-3.53ZM89.81,87.69c.15,0,.28-.05.38-.14.1-.09.14-.22.14-.39s-.05-.29-.14-.39c-.1-.09-.22-.14-.38-.14h-.92v1.06h.92ZM89.86,89.2c.15,0,.28-.05.38-.14.1-.09.14-.22.14-.39s-.05-.29-.14-.39c-.1-.09-.22-.14-.38-.14h-.97v1.06h.97Z"/><path class="cls-2" d="M92.22,86.15h.59l1.23,3.53h-.52l-.27-.81h-1.46l-.27.81h-.52l1.23-3.53ZM93.08,88.39l-.56-1.64h-.02l-.56,1.64h1.14Z"/><path class="cls-2" d="M95.12,89.73c-.31,0-.56-.09-.74-.26-.18-.17-.3-.43-.35-.77h.5c.03.19.1.33.2.42.1.09.23.13.39.13.18,0,.32-.06.43-.19.11-.13.16-.32.16-.59v-2.32h.5v2.32c0,.42-.1.73-.3.94s-.46.32-.79.32Z"/><path class="cls-2" d="M98.19,89.73c-.22,0-.43-.04-.61-.12-.19-.08-.34-.2-.48-.35-.13-.15-.24-.34-.31-.57-.07-.23-.11-.49-.11-.78s.04-.55.11-.78c.07-.23.18-.42.31-.57.13-.15.29-.27.48-.35.19-.08.39-.12.61-.12s.43.04.62.12.34.2.48.35c.13.15.23.34.31.57.07.23.11.48.11.78s-.04.55-.11.78-.17.42-.31.57c-.13.15-.29.27-.48.35s-.39.12-.62.12ZM98.19,89.25c.15,0,.28-.03.41-.09.12-.06.23-.14.32-.25s.16-.25.21-.42c.05-.17.08-.36.08-.58s-.03-.42-.08-.58c-.05-.17-.12-.31-.21-.42s-.2-.2-.32-.25c-.12-.06-.26-.09-.41-.09s-.28.03-.41.09c-.12.06-.23.14-.32.25s-.16.25-.21.42c-.05.17-.08.36-.08.58s.03.42.08.58c.05.17.12.31.21.42s.2.2.32.25c.12.06.26.09.41.09Z"/><path class="cls-2" d="M78.64,82.53c-.22,0-.36-.25-.26-.47l6.3-13.81c.04-.09.13-.15.23-.15h.41c.1,0,.19.06.23.15l6.3,13.81c.1.21-.04.47-.26.47h-1.95c-.21,0-.4-.13-.49-.33l-.74-1.61c-.09-.2-.28-.33-.49-.33h-5.61c-.21,0-.4.13-.49.33l-.72,1.6c-.09.2-.28.33-.49.33h-1.94ZM84.06,77.85h2.07c.4,0,.67-.45.5-.85l-1.03-2.37c-.2-.46-.8-.46-1,0l-1.04,2.37c-.17.4.09.85.5.85Z"/><path class="cls-2" d="M27.43,82.53c-.22,0-.36-.25-.26-.47l6.3-13.81c.04-.09.13-.15.23-.15h.41c.1,0,.19.06.23.15l6.3,13.81c.1.21-.04.47-.26.47h-1.95c-.21,0-.4-.13-.49-.33l-.74-1.61c-.09-.2-.28-.33-.49-.33h-5.61c-.21,0-.4.13-.49.33l-.72,1.6c-.09.2-.28.33-.49.33h-1.94ZM32.85,77.85h2.07c.4,0,.67-.45.5-.85l-1.03-2.37c-.2-.46-.8-.46-1,0l-1.04,2.37c-.17.4.09.85.5.85Z"/><path class="cls-2" d="M64.59,70.54h-2.97c-.23,0-.42.2-.42.45v11.08c0,.25-.19.45-.42.45h-1.71c-.23,0-.42-.2-.42-.45v-11.08c0-.25-.19-.45-.42-.45h-2.99c-.23,0-.42-.2-.42-.45v-1.54c0-.25.19-.45.42-.45h9.35c.23,0,.42.2.42.45v1.54c0,.25-.19.45-.42.45Z"/><path class="cls-2" d="M68.45,82.53h-1.45c-.3,0-.55-.27-.55-.6v-13.24c0-.33.25-.6.55-.6h5.51c.68,0,1.3.12,1.87.36.57.24,1.05.58,1.45,1.03.4.44.71.97.94,1.58.22.61.34,1.28.34,2,0,1.09-.25,2.04-.76,2.86-.38.62-.87,1.11-1.45,1.46-.29.18-.37.59-.17.87.77,1.1,1.52,2.21,2.28,3.32.27.39,0,.95-.45.95h-1.68c-.17,0-.33-.09-.44-.23-.48-.67-.94-1.35-1.4-2.03-.45-.68-.91-1.37-1.36-2.07-.1-.16-.27-.25-.45-.25h-1.69c-.3,0-.55.27-.55.6v3.4c0,.33-.25.6-.55.6ZM69,74.89c0,.33.25.6.55.6h2.95c.23,0,.47-.05.72-.15.25-.1.47-.25.66-.45s.35-.46.48-.76c.13-.3.19-.66.19-1.06,0-.21-.02-.46-.07-.75-.05-.29-.15-.57-.29-.83s-.35-.49-.62-.67c-.27-.18-.62-.28-1.07-.28h-2.95c-.3,0-.55.27-.55.6v3.76Z"/><path class="cls-2" d="M26.21,72.11c0,.29-.05.6-.16.93-.14.41-.34.78-.6,1.11-.16.2-.34.36-.54.5h0c-.2.14-.17.46.04.57.02.01.05.02.07.04.32.18.61.42.87.72s.46.65.63,1.04c.16.39.25.81.25,1.26,0,.79-.11,1.45-.33,2-.22.54-.52.98-.89,1.32-.38.33-.82.57-1.32.72-.5.14-1.04.22-1.61.22h-5.86c-.16,0-.3-.14-.3-.32v-13.79c0-.18.13-.32.3-.32h5.57c.53,0,1.04.06,1.51.17.47.11.89.32,1.24.61.35.3.63.71.84,1.23s.31,1.19.31,2.01ZM19,73.65c0,.18.13.32.3.32h2.84c.26,0,.48-.05.66-.16.19-.11.35-.24.47-.42s.22-.37.29-.58.1-.43.1-.64-.04-.42-.11-.61c-.07-.2-.17-.37-.29-.52-.1-.12-.22-.23-.35-.31-.2-.13-.44-.19-.67-.19h-2.94c-.16,0-.3.14-.3.32v2.79ZM22.6,80.11c.22,0,.42-.06.62-.17.19-.11.36-.26.51-.45.15-.19.26-.4.35-.63.08-.23.13-.46.13-.7,0-.49-.17-.89-.5-1.22-.33-.33-.79-.49-1.38-.49h-3.04c-.16,0-.3.14-.3.32v3.03c0,.18.13.32.3.32h3.31Z"/><path class="cls-2" d="M102.96,72.11c0,.29-.05.6-.16.93-.14.41-.34.78-.6,1.11-.16.2-.34.36-.54.5h0c-.2.14-.17.46.04.57.02.01.05.02.07.04.32.18.61.42.87.72s.46.65.63,1.04c.16.39.25.81.25,1.26,0,.79-.11,1.45-.33,2-.22.54-.52.98-.89,1.32-.38.33-.82.57-1.32.72-.5.14-1.04.22-1.61.22h-5.86c-.16,0-.3-.14-.3-.32v-13.79c0-.18.13-.32.3-.32h5.57c.53,0,1.04.06,1.51.17.47.11.89.32,1.24.61.35.3.63.71.84,1.23s.31,1.19.31,2.01ZM95.75,73.65c0,.18.13.32.3.32h2.84c.26,0,.48-.05.66-.16.19-.11.35-.24.47-.42s.22-.37.29-.58.1-.43.1-.64-.04-.42-.11-.61c-.07-.2-.17-.37-.29-.52-.1-.12-.22-.23-.35-.31-.2-.13-.44-.19-.67-.19h-2.94c-.16,0-.3.14-.3.32v2.79ZM99.35,80.11c.22,0,.42-.06.62-.17.19-.11.36-.26.51-.45.15-.19.26-.4.35-.63.08-.23.13-.46.13-.7,0-.49-.17-.89-.5-1.22-.33-.33-.79-.49-1.38-.49h-3.04c-.16,0-.3.14-.3.32v3.03c0,.18.13.32.3.32h3.31Z"/><path class="cls-2" d="M44.37,75.01v7.12c0,.22-.16.4-.37.4h-1.97c-.2,0-.37-.18-.37-.4v-13.69c0-.35.38-.53.62-.29l7.92,7.99c.23.24.62.06.62-.29v-7.52c0-.22.16-.4.37-.4h1.71c.2,0,.37.18.37.4v13.58c0,.34-.38.52-.61.29l-7.67-7.49c-.24-.23-.61-.05-.61.29Z"/><path class="cls-1" d="M59.91,38.08v21.93c0,.56-.67.84-1.07.44l-7.77-7.77c-1.59-1.59-1.59-4.17,0-5.76l8.84-8.84h0Z"/><path class="cls-5" d="M61.88,37.42l15.51,15.51c.39.39.12,1.07-.44,1.07h-11.41c-2.02,0-3.65-1.64-3.65-3.65v-12.93s0,0,0,0Z"/><path class="cls-5" d="M62.72,35.41h21.93c.56,0,.84.67.44,1.07l-7.97,7.97c-1.48,1.48-3.88,1.48-5.36,0l-9.04-9.04h0Z"/><path class="cls-1" d="M58.01,37.28l-15.51,15.51c-.39.39-1.07.12-1.07-.44v-11.42c0-2.02,1.63-3.65,3.65-3.65h12.93s0,0,0,0Z"/><path class="cls-4" d="M59.94,32.73l.14-21.93c0-.56.66-.85,1.06-.46l7.89,7.69c1.6,1.56,1.64,4.13.07,5.73l-9.16,8.97h0Z"/><path class="cls-3" d="M58.1,33.67l-15.51-15.51c-.39-.39-.12-1.07.44-1.07h11.45c2,0,3.61,1.62,3.61,3.61v12.97s0,0,0,0Z"/><path class="cls-3" d="M57.26,35.41h-21.93c-.56,0-.84-.67-.44-1.07l7.94-7.94c1.5-1.5,3.93-1.5,5.43,0l9.01,9.01h0Z"/><path class="cls-4" d="M61.84,33.53l15.65-15.51c.39-.39,1.07-.12,1.07.44v11.32c0,2.07-1.68,3.75-3.75,3.75h-12.83s-.14,0-.14,0Z"/></svg>