<svg width="120" height="100" viewBox="0 0 120 100" fill="none" xmlns="http://www.w3.org/2000/svg">
<g clip-path="url(#clip0_77_2)">
<path d="M0 55.6767C0.652541 55.4458 0.787549 55.1687 0.787549 54.2451V44.7318C0.787549 43.7851 0.652541 43.508 0 43.3002V43.2078H4.50028C7.13295 43.2078 8.34802 44.8472 8.34802 46.5329C8.34802 48.4032 7.02044 50.2043 4.50028 50.2043C3.82524 50.2043 3.1277 50.0888 2.38515 49.8348V54.222C2.38515 55.1918 2.56516 55.4458 3.51022 55.6536V55.746H0V55.6536V55.6767ZM2.38515 43.8313V49.0959C2.88018 49.3499 3.39771 49.4654 3.89274 49.4654C5.67035 49.4654 6.63791 47.9645 6.63791 46.4174C6.63791 45.0782 5.87287 43.8082 4.02775 43.8082H2.38515V43.8313Z" fill="#1D1D1B"/>
<path d="M9.27055 49.373C9.27055 45.8401 12.2632 43 15.9985 43C19.7337 43 22.4789 45.8632 22.4789 49.5808C22.4789 53.1137 19.4862 55.9538 15.7285 55.9538C11.9707 55.9538 9.24805 53.0906 9.24805 49.373H9.27055ZM20.6788 49.5808C20.6788 46.2789 18.4736 43.6465 15.706 43.6465C12.9383 43.6465 11.0707 45.794 11.0707 49.3499C11.0707 52.675 13.2983 55.3304 16.066 55.3304C18.8336 55.3304 20.6788 53.1599 20.6788 49.6039V49.5808Z" fill="#1D1D1B"/>
<path d="M34.0446 55.6075V55.6998C33.9096 55.746 33.6396 55.746 33.0995 55.746C32.0645 55.746 31.3894 55.3535 30.8494 54.4529L28.8018 50.9893C28.3517 50.2274 28.0367 49.9734 27.4742 49.9734H26.3041V54.2451C26.3041 55.1918 26.4391 55.4689 27.0916 55.6767V55.7691H23.9189V55.6767C24.5715 55.4458 24.7065 55.1687 24.7065 54.2451V44.7318C24.7065 43.7851 24.5715 43.508 23.9189 43.3002V43.2078H27.7442C30.4669 43.2078 31.8394 44.524 31.8394 46.1403C31.8394 47.7567 30.7144 49.0497 29.2293 49.4885C29.9268 49.8579 30.6019 50.6892 31.4569 52.1901C32.807 54.6607 33.302 55.3073 34.0221 55.6075H34.0446ZM30.1518 46.302C30.1518 44.7087 29.1168 43.8082 27.3167 43.8082H26.3041V49.2114C26.5291 49.2576 26.7316 49.2806 27.2042 49.2806C28.9818 49.2806 30.1518 48.0799 30.1518 46.2789V46.302Z" fill="#1D1D1B"/>
<path d="M33.6172 49.3961C33.6172 45.9787 36.7449 43 40.3226 43C41.8302 43 43.3828 43.4618 44.8004 44.3623V46.9716H44.7104C43.9678 44.7549 42.5052 43.6927 40.2551 43.6927C37.3299 43.6927 35.4173 45.9556 35.4173 49.4192C35.4173 52.8828 37.6449 55.2842 40.4801 55.2842C42.5277 55.2842 44.0578 54.1989 44.8229 52.167H44.9129V54.7069C43.5178 55.5844 42.1002 55.9769 40.3226 55.9769C36.5424 55.9769 33.6172 53.1137 33.6172 49.4192V49.3961Z" fill="#1D1D1B"/>
<path d="M51.7983 43.8313H48.7381V48.611H50.9658C51.9333 48.611 52.2033 48.5187 52.4284 48.1261H52.5184V49.8117H52.4284C52.2033 49.3961 51.9333 49.3268 50.9658 49.3268H48.7381V54.7762C49.2107 54.984 49.8632 55.0764 50.8308 55.0764C52.8559 55.0764 53.6884 54.8224 54.2285 53.9911H54.296L53.9585 55.7691H46.3755V55.6767C47.028 55.4458 47.163 55.1687 47.163 54.2451V44.7318C47.163 43.7851 47.028 43.508 46.3755 43.3002V43.2078H53.5759V44.3162H53.4859C53.2159 43.9005 52.9459 43.8313 51.8433 43.8313H51.7983Z" fill="#1D1D1B"/>
<path d="M59.5837 55.0533C61.4513 55.0533 62.2613 54.7762 62.8014 53.968H62.8689L62.5313 55.746H55.2859V55.6536C55.9384 55.4227 56.0734 55.1457 56.0734 54.222V44.7318C56.0734 43.7851 55.9384 43.508 55.2859 43.3002V43.2078H58.4586V43.3002C57.806 43.5311 57.671 43.7851 57.671 44.7318V54.7531C58.1436 54.9609 58.7736 55.0533 59.5837 55.0533Z" fill="#1D1D1B"/>
<path d="M74.4347 55.6767V55.7691H71.4645V55.6767C71.937 55.5151 72.0045 55.2611 71.757 54.6838L70.6319 51.913H65.7941L64.669 54.6838C64.444 55.2611 64.5115 55.5151 64.9616 55.6767V55.7691H62.8464V55.6767C63.3415 55.5151 63.589 55.238 63.859 54.5915L68.6518 43H68.7418L73.3546 54.5915C73.6471 55.238 73.8946 55.492 74.3672 55.6767H74.4347ZM70.3844 51.2202L68.2243 45.8863L66.0641 51.2202H70.3619H70.3844Z" fill="#1D1D1B"/>
<path d="M84.9652 52.698V44.7318C84.9652 43.7851 84.8302 43.508 84.1776 43.3002V43.2078H86.4953V43.3002C85.8427 43.5311 85.7077 43.7851 85.7077 44.7318V56H85.6402L76.7972 45.2398V54.222C76.7972 55.1687 76.9322 55.4458 77.5847 55.6536V55.746H75.2671V55.6536C75.9196 55.4227 76.0546 55.1456 76.0546 54.222V44.7318C76.0546 43.7851 75.9196 43.508 75.2671 43.3002V43.2078H77.1122L84.9427 52.698H84.9652Z" fill="#1D1D1B"/>
<path d="M87.7554 49.373C87.7554 45.8401 90.7481 43 94.4833 43C98.2186 43 100.964 45.8632 100.964 49.5808C100.964 53.1137 97.971 55.9538 94.2133 55.9538C90.4556 55.9538 87.7329 53.0906 87.7329 49.373H87.7554ZM99.1636 49.5808C99.1636 46.2789 96.9585 43.6465 94.1908 43.6465C91.4231 43.6465 89.5555 45.794 89.5555 49.3499C89.5555 52.675 91.7832 55.3304 94.5508 55.3304C97.3185 55.3304 99.1636 53.1599 99.1636 49.6039V49.5808Z" fill="#1D1D1B"/>
<path d="M101.729 54.5915V52.0053H101.819C102.381 54.0142 103.529 55.0995 105.104 55.1456C106.589 55.1687 107.399 54.222 107.399 52.8135C107.399 51.7052 106.949 51.0586 105.892 50.5275L104.204 49.6501C102.561 48.7957 101.954 47.9183 101.909 46.3712C101.886 44.3623 103.394 43 105.712 43C106.837 43 107.827 43.3694 108.367 43.9698V45.9094H108.277C107.849 44.5009 106.837 43.6927 105.532 43.6927C104.226 43.6927 103.349 44.524 103.349 45.8401C103.349 46.9254 103.754 47.5027 104.924 48.103L106.702 49.0266C108.187 49.7886 108.839 50.8046 108.839 52.3286C108.839 54.3837 107.084 56 104.856 56C103.799 56 102.224 55.3073 101.706 54.6377L101.729 54.5915Z" fill="#1D1D1B"/>
<path d="M120 55.6767V55.7691H117.03V55.6767C117.502 55.5151 117.57 55.2611 117.322 54.6838L116.197 51.913H111.36L110.234 54.6838C110.009 55.2611 110.077 55.5151 110.527 55.6767V55.7691H108.412V55.6767C108.907 55.5151 109.154 55.238 109.424 54.5915L114.217 43H114.307L118.92 54.5915C119.213 55.238 119.46 55.492 119.933 55.6767H120ZM115.95 51.2202L113.79 45.8863L111.63 51.2202H115.927H115.95Z" fill="#1D1D1B"/>
</g>
<defs>
<clipPath id="clip0_77_2">
<rect width="120" height="13" fill="white" transform="translate(0 43)"/>
</clipPath>
</defs>
</svg>
