<svg width="120" height="100" viewBox="0 0 120 100" fill="none" xmlns="http://www.w3.org/2000/svg">
<g clip-path="url(#clip0_3_2)">
<path d="M53.8648 41.3084C57.5546 44.9842 63.5239 44.9798 67.1919 41.3258C70.8468 37.6849 70.8424 31.7428 67.1569 28.067C63.4715 24.3913 57.5546 24.4478 53.9041 28.0888C50.2361 31.7384 50.223 37.6805 53.8648 41.3084Z" fill="#FFD200"/>
<path d="M53.4456 26.2053C53.057 26.5924 53.057 27.2188 53.4456 27.606L51.2143 25.3831C49.5244 23.6997 49.5244 20.9505 51.2143 19.267L60.5371 9.9754L69.8643 19.267C71.5542 20.9505 71.5542 23.6997 69.8643 25.3831L67.6329 27.606C68.0172 27.2232 68.0172 26.5924 67.6329 26.2053L60.5371 19.1365L53.4456 26.2053Z" fill="black"/>
<path d="M59.4062 49.1646C60.166 49.9215 60.5415 50.9176 60.5415 51.9094C60.5415 50.9089 60.917 49.9128 61.6768 49.1602L76.1742 34.7182L69.1438 27.7147L73.7419 23.1298L81.4229 30.7858C83.5931 32.9478 83.5931 36.4887 81.4229 38.6506L60.5328 59.461L39.6426 38.6506C37.4724 36.4887 37.4724 32.9478 39.6426 30.7858L47.3236 23.1342L51.9261 27.7147L44.8957 34.7182L59.3974 49.1646H59.4062Z" fill="black"/>
<path d="M42.6643 84.7693C42.8172 84.7693 42.9395 84.7128 43.0399 84.6171C43.1622 84.517 43.1927 84.3865 43.1927 84.2386C43.1927 84.0864 43.1578 83.9472 43.0399 83.8515C42.9395 83.7384 42.8128 83.6905 42.6643 83.6905C42.4984 83.6905 42.3762 83.7471 42.2801 83.8515C42.1709 83.9602 42.1273 84.0864 42.1273 84.2386C42.1273 84.3822 42.1709 84.5127 42.2801 84.6171C42.3762 84.7128 42.494 84.7693 42.6643 84.7693Z" fill="black"/>
<path d="M30.2368 90.3547C30.1014 90.3547 30.001 90.2981 29.9573 90.1633C29.9267 90.0937 29.9136 89.9501 29.9136 89.7587V87.6751C29.9136 87.2401 29.8394 86.8877 29.7215 86.6441C29.4857 86.2135 29.0272 85.996 28.3504 85.996C27.7783 85.996 27.3504 86.1352 27.0404 86.3918C26.7434 86.6485 26.5906 86.9008 26.5906 87.1444C26.5906 87.2662 26.6386 87.3837 26.6998 87.4837C26.8089 87.5838 26.9094 87.6316 27.0709 87.6316C27.1757 87.6316 27.2369 87.6099 27.3329 87.5664C27.4508 87.4881 27.5251 87.3488 27.5251 87.1618C27.5251 87.1444 27.512 87.0748 27.4945 86.9791C27.4858 86.879 27.477 86.8007 27.477 86.7659C27.477 86.6006 27.5556 86.4702 27.7172 86.3745C27.87 86.2875 28.0403 86.2527 28.2281 86.2527C28.5774 86.2527 28.822 86.3614 28.9311 86.5963C29.0141 86.7355 29.0578 86.9791 29.0578 87.3271V87.7621C28.0971 88.1188 27.4639 88.3972 27.1452 88.5973C26.6517 88.9453 26.3941 89.3542 26.3941 89.8588C26.3941 90.172 26.512 90.4417 26.726 90.6548C26.9399 90.8506 27.1976 90.9507 27.4945 90.9507C27.7914 90.9507 28.0709 90.868 28.3853 90.6853C28.5774 90.5722 28.8089 90.4026 29.0796 90.1764C29.0883 90.3765 29.1364 90.5635 29.2368 90.707C29.346 90.8506 29.5119 90.9289 29.7477 90.9289C29.9529 90.9289 30.1363 90.868 30.3285 90.7375C30.4595 90.6592 30.5817 90.5504 30.6953 90.4112V90.1633C30.5643 90.2503 30.4726 90.3112 30.4289 90.3286C30.3678 90.3547 30.311 90.3591 30.2368 90.3591M29.0621 89.663C29.0621 89.8588 28.9355 90.0241 28.7477 90.1546C28.5381 90.2851 28.3198 90.3416 28.084 90.3416C27.9312 90.3416 27.7652 90.2982 27.6386 90.2025C27.429 90.0415 27.3242 89.8066 27.3242 89.4934C27.3242 89.1019 27.5775 88.7496 28.0665 88.4494C28.3285 88.2928 28.6473 88.1449 29.0621 88.01V89.6587V89.663Z" fill="black"/>
<path d="M102.247 87.7969C101.907 87.5228 101.483 87.3271 101.003 87.2183C101.392 87.1139 101.689 86.9965 101.885 86.8399C102.23 86.5919 102.405 86.2135 102.405 85.7132C102.405 85.0564 102.169 84.5822 101.662 84.3082C101.165 84.0428 100.483 83.9036 99.6493 83.9036H96.6887V84.0994C97.1079 84.1168 97.3787 84.1907 97.514 84.3038C97.6276 84.4213 97.6974 84.6605 97.6974 85.0607V89.7283C97.6974 90.1285 97.6232 90.3764 97.514 90.4852C97.3787 90.5939 97.1079 90.6722 96.6887 90.6896V90.8767H100.143C100.719 90.8767 101.23 90.7984 101.627 90.6374C102.378 90.3329 102.763 89.7718 102.763 88.9453C102.763 88.4581 102.588 88.0622 102.247 87.8012M98.7804 84.6562C98.7804 84.4822 98.7935 84.3778 98.8502 84.3473C98.8852 84.3082 99.0293 84.2951 99.252 84.2951C99.8327 84.2951 100.274 84.3517 100.562 84.4691C101.06 84.691 101.335 85.1173 101.335 85.7437C101.335 86.2787 101.103 86.6485 100.645 86.8529C100.427 86.9704 100.121 87.0139 99.776 87.0269L98.7804 87.0487V84.6562ZM101.02 90.1763C100.636 90.3851 100.182 90.4895 99.645 90.4895C99.2782 90.4895 99.0336 90.4591 98.9245 90.4112C98.8284 90.359 98.7847 90.2329 98.7847 90.0589V87.4315C98.859 87.4489 98.9245 87.4489 98.9812 87.4489H99.2869C99.9463 87.4489 100.488 87.5533 100.924 87.7621C101.361 87.9839 101.579 88.3885 101.579 88.9757C101.579 89.563 101.392 89.9806 101.025 90.1763" fill="black"/>
<path d="M112.714 90.0154V87.6098C112.714 86.9486 112.531 86.4701 112.16 86.2178C111.972 86.0786 111.762 86.009 111.514 86.009C111.234 86.009 110.955 86.0917 110.701 86.257C110.501 86.3744 110.265 86.5789 109.959 86.8747V86.1308C109.959 86.0917 109.955 86.0743 109.955 86.0525C109.946 86.0438 109.924 86.0221 109.898 86.0221L109.418 86.1874C108.885 86.344 108.562 86.4484 108.413 86.4919V86.6659C108.466 86.6572 108.496 86.6485 108.531 86.6485C108.575 86.6485 108.605 86.6441 108.636 86.6441C108.837 86.6441 108.968 86.7094 109.025 86.8399C109.077 86.9269 109.09 87.0878 109.09 87.3053V89.9545C109.09 90.2633 109.042 90.4634 108.963 90.5591C108.859 90.6461 108.68 90.694 108.444 90.7244V90.8767H110.675V90.7244C110.452 90.7244 110.269 90.6853 110.173 90.5939C110.059 90.5113 110.011 90.3503 110.011 90.1024V87.2096C110.19 87.0226 110.335 86.8964 110.461 86.8181C110.666 86.6833 110.876 86.6093 111.086 86.6093C111.369 86.6093 111.57 86.7007 111.662 86.9051C111.784 87.0922 111.824 87.3401 111.824 87.6359V89.8457C111.824 90.1981 111.784 90.4243 111.688 90.5243C111.597 90.6374 111.418 90.694 111.16 90.7244V90.8767H113.365V90.7244C113.142 90.7244 112.968 90.6766 112.88 90.5635C112.78 90.4504 112.723 90.272 112.723 90.0154" fill="black"/>
<path d="M118.02 90.3764C117.771 90.172 117.413 89.7457 116.915 89.128L116.003 87.9013L116.286 87.6534C116.937 87.0357 117.391 86.6659 117.627 86.5311C117.85 86.4006 118.147 86.3135 118.531 86.2961V86.1482H116.378V86.2961C116.588 86.3048 116.71 86.3222 116.806 86.344C116.871 86.3614 116.911 86.4093 116.911 86.4919C116.911 86.5311 116.898 86.5832 116.854 86.6311C116.828 86.6876 116.74 86.7616 116.644 86.8486L115.221 88.1101V83.7732C115.221 83.7427 115.221 83.7253 115.212 83.7123C115.203 83.6992 115.199 83.6992 115.19 83.6992C115.168 83.6992 115.077 83.7384 114.915 83.7862C114.662 83.8602 114.352 83.9428 113.998 84.0385L113.531 84.1603V84.3125C113.583 84.3038 113.653 84.2995 113.693 84.2995C113.749 84.2908 113.78 84.2908 113.858 84.2908C114.016 84.2908 114.134 84.3126 114.217 84.3821C114.3 84.4517 114.33 84.5953 114.33 84.8345V90.0111C114.33 90.3025 114.291 90.4765 114.186 90.5722C114.068 90.6548 113.858 90.7027 113.531 90.7245V90.8767H116.024V90.7245C115.767 90.7245 115.601 90.694 115.483 90.6636C115.334 90.5722 115.217 90.4156 115.217 90.1807V88.2667L116.815 90.3547C116.845 90.3938 116.863 90.4417 116.88 90.4634C116.902 90.4982 116.906 90.5417 116.906 90.5722C116.906 90.6331 116.893 90.6635 116.841 90.6896C116.802 90.6983 116.732 90.7157 116.671 90.7157L116.505 90.7245V90.8767H118.793V90.7245C118.513 90.7027 118.264 90.5896 118.011 90.3808" fill="black"/>
<path d="M40.9657 90.2416C40.7299 90.2416 40.5771 90.2025 40.5247 90.1111C40.4723 90.0198 40.4243 89.8719 40.4243 89.6457L40.4417 85.4566C40.4417 85.2565 40.4417 85.0521 40.4505 84.852C40.4505 84.6432 40.4679 84.4387 40.4679 84.243V83.7036L40.4199 83.6905C40.3064 83.734 40.2016 83.7775 40.1492 83.7819C40.04 83.8297 39.9003 83.8689 39.7431 83.9124C39.5815 83.9559 39.4374 83.995 39.2715 84.0385L38.8435 84.1473V84.3213C38.9745 84.3126 39.0138 84.2995 39.0488 84.2995H39.1667C39.3501 84.2995 39.4549 84.3387 39.4942 84.417C39.5466 84.4953 39.5771 84.6388 39.5771 84.8476V86.4615C39.4461 86.344 39.3151 86.244 39.1754 86.1657C38.9745 86.0613 38.7387 86.0004 38.4855 86.0004C37.861 86.0004 37.3327 86.2701 36.8916 86.8008C36.4637 87.3271 36.2454 87.9753 36.2454 88.7191C36.2454 89.3194 36.4244 89.8327 36.7825 90.2808C37.1405 90.7332 37.6252 90.9507 38.2016 90.9507C38.5335 90.9507 38.8217 90.8811 39.0662 90.7158C39.206 90.6288 39.3675 90.4765 39.5728 90.2547V90.9202L39.6121 90.9507L40.4112 90.6636C40.8915 90.4896 41.1622 90.4026 41.1797 90.3982V90.2199C41.1404 90.2242 41.088 90.2242 41.0574 90.2286C41.04 90.2286 40.9876 90.2373 40.9526 90.2373M39.5859 89.7066C39.5859 89.8414 39.4854 90.0024 39.3282 90.1546C39.1667 90.3112 38.9614 90.3852 38.682 90.3852C38.1667 90.3852 37.7999 90.1764 37.5379 89.7457C37.2715 89.3281 37.1493 88.8322 37.1493 88.2798C37.1493 87.7273 37.2584 87.2532 37.503 86.8791C37.7519 86.4963 38.0881 86.3049 38.516 86.3049C38.7562 86.3049 38.9833 86.4006 39.2147 86.5833C39.4592 86.7703 39.5815 87.0792 39.5815 87.5229V89.7109L39.5859 89.7066Z" fill="black"/>
<path d="M43.2058 89.8022V86.1004C43.2058 86.0743 43.2058 86.0482 43.1971 86.0177C43.184 86.0177 43.1141 86.0438 43.018 86.0743C42.7779 86.183 42.3674 86.3179 41.7648 86.518L41.5421 86.5876V86.7398C41.7299 86.6789 41.8085 86.6615 41.8565 86.6485C41.8958 86.6398 41.9307 86.6398 41.9613 86.6398C42.136 86.6398 42.2452 86.705 42.2801 86.8442C42.315 86.9399 42.3325 87.0922 42.3325 87.3184V89.7892C42.3325 90.1981 42.2801 90.446 42.1884 90.533C42.0792 90.6287 41.8565 90.6853 41.4854 90.7157V90.868H43.9874V90.7157C43.6687 90.6896 43.4416 90.6331 43.363 90.533C43.2495 90.4286 43.2014 90.185 43.2014 89.7979" fill="black"/>
<path d="M11.9972 89.7936V87.6969C11.9972 87.2967 11.9492 86.9748 11.8356 86.7268C11.6391 86.2527 11.2549 86.0178 10.7003 86.0178C10.3553 86.0178 10.0322 86.1309 9.72654 86.3353C9.57371 86.4484 9.38158 86.6355 9.16324 86.8791V83.7297L9.14577 83.6905L8.65671 83.8384C8.56064 83.8776 8.41217 83.9254 8.18511 83.982C7.95804 84.0429 7.77028 84.0951 7.61308 84.1473V84.343C7.65674 84.3343 7.71351 84.3343 7.73971 84.3169C7.77465 84.3126 7.81394 84.3126 7.85324 84.3126C8.04101 84.3126 8.15891 84.3517 8.21568 84.4518C8.26371 84.5431 8.29864 84.6823 8.29864 84.865V89.7849C8.29864 90.1677 8.25498 90.4113 8.15454 90.507C8.07158 90.6027 7.88381 90.681 7.59998 90.7114V90.8637H9.88811V90.7114C9.59554 90.6766 9.39904 90.6027 9.31171 90.507C9.22437 90.4156 9.17634 90.1677 9.17634 89.7849V87.2532C9.17634 87.1923 9.31171 87.0705 9.55624 86.8791C9.80514 86.6833 10.0628 86.592 10.3335 86.592C10.6392 86.592 10.8444 86.692 10.9579 86.9008C11.0584 87.1096 11.1239 87.3793 11.1239 87.7056V89.7849C11.1239 90.1677 11.0802 90.4113 10.9972 90.507C10.8968 90.6027 10.7134 90.681 10.4077 90.7114V90.8637H12.6609V90.7114C12.4033 90.681 12.2243 90.6114 12.1413 90.5026C12.054 90.3895 12.0103 90.1503 12.0103 89.7849" fill="black"/>
<path d="M1.23778 83.8993L1.19849 85.6959H1.44302C1.54782 85.1347 1.71812 84.765 1.92335 84.5953C2.14169 84.43 2.53469 84.3474 3.13729 84.3474H3.69622V89.5978C3.69622 90.0589 3.63072 90.346 3.53028 90.4548C3.40802 90.5635 3.13729 90.6462 2.68752 90.681V90.868H5.77476V90.681C5.35556 90.6549 5.08919 90.5809 4.95819 90.4809C4.83592 90.3808 4.77042 90.1285 4.77042 89.7153V84.343H5.34682C5.96252 84.343 6.35989 84.4257 6.54765 84.591C6.74415 84.765 6.88825 85.1304 7.01925 85.6915H7.28126L7.22449 83.895H1.23778V83.8993Z" fill="black"/>
<path d="M23.7567 87.027L22.8178 86.4528C22.4641 86.244 22.224 86.0395 22.0624 85.8438C21.879 85.6524 21.8048 85.4218 21.8048 85.1478C21.8048 84.8433 21.8965 84.6127 22.1192 84.4431C22.3331 84.2647 22.5864 84.1864 22.8833 84.1864C23.2589 84.1864 23.6344 84.3126 24.0099 84.5866C24.3898 84.8563 24.678 85.3261 24.8483 85.996H25.0972L24.8614 83.7558H24.6431C24.6125 83.8689 24.5776 83.9385 24.5077 84.0037C24.4641 84.069 24.3767 84.0951 24.2457 84.0951C24.1933 84.0951 24.0056 84.0385 23.665 83.9298C23.3331 83.8123 23.0449 83.7558 22.8047 83.7558C22.224 83.7558 21.7524 83.9385 21.3812 84.2952C21.0493 84.6475 20.8659 85.0912 20.8659 85.6219C20.8659 86.0178 21.0231 86.3832 21.3157 86.7181C21.4685 86.8965 21.6869 87.0661 21.9532 87.2401L22.8702 87.8013C23.3855 88.1188 23.7348 88.3668 23.892 88.5321C24.1453 88.78 24.2676 89.0802 24.2676 89.4325C24.2676 89.8066 24.1453 90.1068 23.892 90.3199C23.6475 90.5331 23.3637 90.6418 23.0318 90.6418C22.3899 90.6418 21.8834 90.3895 21.4598 89.9067C21.2196 89.6283 21.0057 89.2498 20.831 88.78H20.5734L20.8834 91.029H21.1279C21.1541 90.9333 21.1716 90.8463 21.224 90.7723C21.2633 90.6897 21.3506 90.6592 21.4642 90.6592C21.5297 90.6592 21.7218 90.7114 22.0668 90.8332C22.4205 90.955 22.7742 91.029 23.1017 91.029C23.7523 91.029 24.2938 90.8332 24.6955 90.4591C25.1191 90.0937 25.3374 89.6283 25.3374 89.0802C25.3374 88.6713 25.2108 88.3102 24.9837 88.0144C24.7435 87.7056 24.3374 87.388 23.7567 87.027Z" fill="black"/>
<path d="M16.3945 89.9589C16.1368 90.1416 15.853 90.2329 15.4775 90.2329C15.0321 90.2329 14.6478 90.0589 14.3203 89.6935C13.9972 89.3368 13.8182 88.7539 13.7832 87.9666H17.0451C17.0451 87.3532 16.8661 86.8877 16.4993 86.5571C16.1281 86.2178 15.6958 86.0612 15.2329 86.0612C14.5779 86.0612 14.0409 86.3048 13.6348 86.8007C13.2156 87.3097 13.0103 87.897 13.0103 88.5843C13.0103 89.2237 13.1981 89.7805 13.5299 90.259C13.9011 90.7462 14.3858 90.9855 15.0364 90.9855C15.6085 90.9855 16.0801 90.8027 16.4687 90.4373C16.853 90.0632 17.115 89.663 17.2547 89.228L17.0582 89.1584C16.8661 89.5021 16.6347 89.7762 16.3901 89.9589M14.0408 86.9486C14.2461 86.605 14.5299 86.4353 14.9404 86.4353C15.3246 86.4353 15.6128 86.5919 15.7788 86.8877C15.8617 87.0574 15.9403 87.314 15.9709 87.6446H13.8094C13.8574 87.3619 13.936 87.14 14.0452 86.9486" fill="black"/>
<path d="M35.2279 90.2416C35.1493 90.1589 35.11 89.998 35.11 89.7761V86.1178H33.4463V86.2874C33.7607 86.3005 33.9703 86.357 34.0664 86.4353C34.1668 86.5267 34.2236 86.6876 34.2236 86.9573V89.7674C34.1013 89.9066 33.966 90.0328 33.8481 90.1154C33.6166 90.2677 33.3808 90.346 33.145 90.346C32.8175 90.346 32.5905 90.2155 32.4595 89.9545C32.3852 89.8109 32.3547 89.6282 32.3547 89.3977V86.1221H30.822V86.2613C31.0621 86.2961 31.2281 86.3266 31.2979 86.3831C31.4246 86.4745 31.4813 86.6659 31.4813 86.9312V89.5934C31.4813 90.0937 31.6036 90.4417 31.8787 90.6592C32.132 90.8636 32.4202 90.9637 32.7171 90.9637C33.0446 90.9637 33.3546 90.8636 33.6428 90.6679C33.8306 90.5287 34.0446 90.3242 34.276 90.0415V90.8984C34.276 90.8984 34.276 90.9332 34.276 90.9463C34.276 90.9637 34.2978 90.968 34.3197 90.968C34.6166 90.8593 34.8175 90.794 34.8917 90.7592C35.1144 90.7027 35.2541 90.6548 35.3502 90.6244C35.4288 90.5983 35.5773 90.5722 35.765 90.5156V90.3677C35.4943 90.3808 35.3153 90.346 35.2323 90.2546" fill="black"/>
<path d="M47.0616 84.095C47.4764 84.1081 47.7559 84.1864 47.8694 84.2951C48.0004 84.4126 48.0659 84.6518 48.0659 85.052V89.7196C48.0659 90.1328 48.0004 90.3851 47.8694 90.4852C47.7603 90.5809 47.4764 90.6548 47.0616 90.6809V90.868H50.1488V90.6809C49.734 90.6548 49.4458 90.5809 49.341 90.4852C49.21 90.3851 49.1489 90.1328 49.1489 89.7196V85.052C49.1489 84.6518 49.2144 84.4126 49.341 84.2951C49.4458 84.182 49.734 84.1081 50.1488 84.095V83.8993H47.0616V84.095Z" fill="black"/>
<path d="M84.5232 89.9589C84.2743 90.1416 83.973 90.2329 83.6106 90.2329C83.1696 90.2329 82.7722 90.0589 82.4534 89.6935C82.1128 89.3368 81.9382 88.7539 81.8989 87.9666H85.1695C85.1695 87.3532 84.9905 86.8877 84.628 86.5571C84.2743 86.2178 83.8464 86.0612 83.353 86.0612C82.6849 86.0612 82.1521 86.3048 81.7591 86.8007C81.3487 87.3097 81.1434 87.897 81.1434 88.5843C81.1434 89.2237 81.3094 89.7805 81.6674 90.259C82.0255 90.7462 82.5277 90.9855 83.1783 90.9855C83.7329 90.9855 84.1957 90.8027 84.5887 90.4373C84.9817 90.0632 85.2525 89.663 85.3747 89.228L85.187 89.1584C84.9905 89.5021 84.7678 89.7762 84.5232 89.9589ZM82.1521 86.9486C82.3617 86.605 82.6543 86.4353 83.056 86.4353C83.4578 86.4353 83.7372 86.5919 83.8988 86.8877C83.9992 87.0574 84.0473 87.314 84.0997 87.6446H81.9251C81.9731 87.3619 82.0561 87.14 82.1521 86.9486Z" fill="black"/>
<path d="M90.1125 90.0154V87.6098C90.1125 86.9486 89.9248 86.4701 89.558 86.2178C89.3615 86.0786 89.1519 86.009 88.9292 86.009C88.6279 86.009 88.3528 86.0917 88.0777 86.257C87.903 86.3744 87.6498 86.5789 87.3485 86.8747V86.1308C87.3485 86.0917 87.3485 86.0743 87.3354 86.0525C87.3354 86.0438 87.3004 86.0221 87.2917 86.0221L86.8113 86.1874C86.2873 86.344 85.9511 86.4484 85.7896 86.4919V86.6659C85.8551 86.6572 85.8987 86.6485 85.9424 86.6485C85.9642 86.6485 85.9904 86.6441 86.0254 86.6441C86.2306 86.6441 86.3441 86.7094 86.4184 86.8399C86.462 86.9269 86.4969 87.0878 86.4969 87.3053V89.9545C86.4969 90.2633 86.4402 90.4634 86.3354 90.5591C86.2524 90.6461 86.069 90.694 85.8332 90.7244V90.8767H88.0602V90.7244C87.8201 90.7244 87.6541 90.6853 87.5406 90.5939C87.4576 90.5113 87.3921 90.3503 87.3921 90.1024V87.2096C87.5668 87.0226 87.724 86.8964 87.8244 86.8181C88.0515 86.6833 88.2524 86.6093 88.4532 86.6093C88.7458 86.6093 88.9554 86.7007 89.0471 86.9051C89.1693 87.0922 89.2305 87.3401 89.2305 87.6359V89.8457C89.2305 90.1981 89.1737 90.4243 89.0689 90.5243C88.9729 90.6374 88.7982 90.694 88.5405 90.7244V90.8767H90.7632V90.7244C90.523 90.7244 90.3746 90.6766 90.2523 90.5635C90.1693 90.4504 90.1213 90.272 90.1213 90.0154" fill="black"/>
<path d="M93.4006 90.3068C93.322 90.3547 93.2085 90.3808 93.0775 90.3808C92.8373 90.3808 92.6714 90.2633 92.584 90.0328C92.5491 89.9066 92.5404 89.6935 92.5404 89.4542V86.5049H93.5927V86.1439H92.5491V84.8737C92.5491 84.8258 92.5491 84.8084 92.5447 84.8084C92.5447 84.7997 92.5011 84.791 92.4487 84.791C92.0644 85.3087 91.8286 85.6349 91.7063 85.748C91.6146 85.8742 91.4269 86.0308 91.2042 86.2222C91.1212 86.2874 91.0644 86.3353 91.0426 86.357C91.0426 86.3744 91.0339 86.3962 91.0339 86.4353C91.0339 86.444 91.0426 86.4527 91.0426 86.4701C91.0426 86.4832 91.0601 86.4919 91.0819 86.5049H91.6408V89.6108C91.6408 89.9588 91.6889 90.2285 91.7762 90.433C91.9028 90.7897 92.2041 90.9593 92.5884 90.9593C92.7893 90.9593 92.977 90.9289 93.1779 90.8158C93.37 90.7027 93.5665 90.5417 93.7456 90.3025L93.8504 90.1328L93.7281 90.0197C93.6058 90.1502 93.4923 90.2416 93.405 90.3112" fill="black"/>
<path d="M72.2529 90.3068C72.1743 90.3547 72.0608 90.3808 71.9341 90.3808C71.7071 90.3808 71.528 90.2633 71.4494 90.0328C71.4058 89.9066 71.3752 89.6935 71.3752 89.4542L71.3883 86.5049H72.4538V86.1439H71.4058V84.8737C71.4058 84.8258 71.4058 84.8084 71.397 84.8084C71.3839 84.7997 71.3577 84.791 71.3141 84.791C70.9254 85.3087 70.6853 85.6349 70.563 85.748C70.4713 85.8742 70.3054 86.0308 70.0521 86.2222C69.9779 86.2874 69.9255 86.3353 69.908 86.357C69.8949 86.3744 69.8949 86.3962 69.8949 86.4353C69.8949 86.444 69.8949 86.4527 69.8949 86.4701C69.9036 86.4832 69.9124 86.4919 69.9298 86.5049H70.4975V89.6108C70.4975 89.9588 70.5281 90.2285 70.6285 90.433C70.7551 90.7897 71.039 90.9593 71.4494 90.9593C71.6416 90.9593 71.8293 90.9289 72.0258 90.8158C72.2223 90.7027 72.4319 90.5417 72.5891 90.3025L72.7158 90.1328L72.5586 90.0197C72.4669 90.1502 72.3533 90.2416 72.2485 90.3112" fill="black"/>
<path d="M80.126 90.0632V87.9317C80.126 87.3836 80.0823 86.9791 79.96 86.7311C79.781 86.2787 79.4142 86.0569 78.8465 86.0569C78.519 86.0569 78.1915 86.1526 77.8771 86.3701C77.6937 86.4875 77.4492 86.6789 77.2003 86.9399C77.1304 86.7137 77.0518 86.531 76.9383 86.4049C76.72 86.1656 76.4449 86.0525 76.0912 86.0525C75.8379 86.0525 75.5846 86.1134 75.3226 86.2178C75.0868 86.3483 74.7943 86.5484 74.4537 86.8616V86.1743C74.4537 86.1221 74.4537 86.0873 74.4449 86.0656C74.4362 86.0525 74.4318 86.0482 74.41 86.0482C74.3925 86.0482 74.2441 86.1091 73.934 86.2222C73.6153 86.344 73.3926 86.431 73.2572 86.4788L72.8904 86.5919V86.7746C72.9472 86.7572 72.969 86.7529 73.017 86.7442C73.0432 86.7398 73.0956 86.7398 73.1742 86.7398C73.3314 86.7398 73.445 86.7746 73.5105 86.8529C73.576 86.9356 73.6022 87.1009 73.6022 87.3532V89.9936C73.6022 90.2981 73.541 90.4852 73.41 90.5765C73.3271 90.6548 73.1437 90.6853 72.886 90.707V90.8593H75.2484V90.707C74.9427 90.707 74.7419 90.6679 74.6371 90.5635C74.5541 90.4678 74.5148 90.3025 74.5148 90.0458V87.214C74.6589 87.0226 74.8379 86.8703 75.0301 86.7529C75.2353 86.6441 75.4449 86.5832 75.6545 86.5832C76.03 86.5832 76.2658 86.7529 76.375 87.0835C76.4405 87.2923 76.4754 87.649 76.4754 88.1753V89.6065C76.4754 90.0806 76.4274 90.3634 76.3488 90.4721C76.2527 90.5809 76.0388 90.6635 75.72 90.6983V90.8506H78.0911V90.6983C77.7636 90.694 77.5584 90.62 77.4579 90.4721C77.3706 90.3286 77.3226 90.1198 77.3226 89.8544V87.2183C77.5016 87.0269 77.6675 86.8877 77.7767 86.8007C78.0038 86.6528 78.2177 86.5789 78.4535 86.5789C78.816 86.5789 79.0649 86.7224 79.2002 86.9921C79.2657 87.1574 79.2919 87.3923 79.2919 87.7403V89.9675C79.2919 90.2459 79.2526 90.433 79.1653 90.533C79.0605 90.62 78.8553 90.6722 78.5627 90.6983V90.8506H80.9076V90.6983C80.6194 90.6722 80.4273 90.6287 80.3181 90.5374C80.1915 90.4417 80.1434 90.2851 80.1434 90.0415" fill="black"/>
<path d="M54.8779 90.0154V87.6098C54.8779 86.9486 54.6771 86.4701 54.3103 86.2178C54.1094 86.0786 53.9129 86.009 53.6858 86.009C53.4064 86.009 53.1182 86.0917 52.8474 86.257C52.6597 86.3744 52.4195 86.5789 52.1138 86.8747V86.1308C52.1138 86.0917 52.1138 86.0743 52.1007 86.0525C52.0876 86.0438 52.0833 86.0221 52.0571 86.0221L51.5767 86.1874C51.044 86.344 50.7078 86.4484 50.5637 86.4919V86.6659C50.6073 86.6572 50.6641 86.6485 50.6947 86.6485C50.7296 86.6485 50.7689 86.6441 50.7951 86.6441C51.0003 86.6441 51.1269 86.7094 51.1924 86.8399C51.2405 86.9269 51.2492 87.0878 51.2492 87.3053V89.9545C51.2492 90.2633 51.2143 90.4634 51.1095 90.5591C51.0134 90.6461 50.8344 90.694 50.5986 90.7244V90.8767H52.8474V90.7244C52.6029 90.7244 52.4282 90.6853 52.3103 90.5939C52.1968 90.5113 52.1487 90.3503 52.1487 90.1024V87.2096C52.3409 87.0226 52.4632 86.8964 52.6073 86.8181C52.8125 86.6833 53.0046 86.6093 53.223 86.6093C53.5068 86.6093 53.7077 86.7007 53.8168 86.9051C53.9304 87.0922 53.9871 87.3401 53.9871 87.6359V89.8457C53.9871 90.1981 53.9303 90.4243 53.8255 90.5243C53.7382 90.6374 53.5548 90.694 53.2885 90.7244V90.8767H55.5198V90.7244C55.2884 90.7244 55.1225 90.6766 55.022 90.5635C54.9129 90.4504 54.8779 90.272 54.8779 90.0154Z" fill="black"/>
<path d="M59.2271 86.2265C59.3712 86.2352 59.476 86.257 59.5415 86.2874C59.6769 86.357 59.738 86.444 59.738 86.5832C59.738 86.6485 59.7249 86.7398 59.6856 86.866C59.6463 86.9878 59.5939 87.1052 59.5546 87.227L58.6333 89.5108L57.546 86.9095C57.4979 86.8181 57.4805 86.7442 57.4674 86.6833C57.4586 86.6441 57.4543 86.5919 57.4543 86.5267C57.4543 86.4223 57.4717 86.3483 57.5591 86.3005C57.642 86.27 57.7599 86.2439 57.939 86.2178V86.0699H55.8735V86.2178C56.0307 86.2439 56.1486 86.2787 56.2403 86.3483C56.3801 86.4527 56.5198 86.6659 56.6333 86.9704L58.2228 90.7462C58.249 90.8027 58.2839 90.8549 58.3058 90.8984C58.3232 90.9289 58.3407 90.9463 58.3713 90.9463C58.4149 90.9463 58.4411 90.9376 58.4673 90.9202C58.4892 90.8984 58.511 90.8462 58.5416 90.781L60.0262 87.0661C60.1398 86.7181 60.2751 86.4919 60.3363 86.3962C60.4105 86.2918 60.5328 86.2439 60.7074 86.2178V86.0699H59.2228V86.2178L59.2271 86.2265Z" fill="black"/>
<path d="M68.2355 88.1971L67.5543 87.8404C67.0783 87.5881 66.8338 87.3097 66.8338 86.9921C66.8338 86.7877 66.9124 86.6224 67.0478 86.4701C67.1875 86.3222 67.3753 86.2526 67.6155 86.2526C68.0303 86.2526 68.3359 86.4179 68.5499 86.7659C68.6809 86.9486 68.7552 87.214 68.8425 87.5446H68.9822L68.9517 86.1221H68.8425C68.8163 86.1526 68.7813 86.1874 68.7551 86.1961C68.7377 86.2178 68.694 86.2265 68.6285 86.2265C68.5892 86.2265 68.4844 86.1961 68.253 86.1221C68.039 86.0482 67.8207 86.0134 67.6591 86.0134C67.2356 86.0134 66.8731 86.1395 66.598 86.3788C66.3229 86.6311 66.1876 86.9486 66.1876 87.3314C66.1876 87.6446 66.2967 87.9187 66.4845 88.1405C66.7028 88.3711 66.9998 88.5929 67.4233 88.8322L67.9954 89.1541C68.2268 89.2759 68.3621 89.402 68.4538 89.5499C68.5368 89.6804 68.5674 89.8153 68.5674 89.9675C68.5674 90.1981 68.5019 90.3764 68.3578 90.5243C68.2137 90.6679 68.0085 90.7288 67.7552 90.7288C67.2836 90.7288 66.9386 90.5417 66.7116 90.1502C66.5675 89.9371 66.4583 89.6326 66.3753 89.2498H66.2007V90.9158H66.3448C66.371 90.8636 66.4059 90.8245 66.4277 90.8114C66.4583 90.781 66.4889 90.7636 66.5413 90.7636C66.5849 90.7636 66.7421 90.7984 67.0041 90.8636C67.2661 90.9376 67.4932 90.9637 67.7072 90.9637C68.1962 90.9637 68.5761 90.8375 68.8818 90.5809C69.1875 90.3329 69.3403 89.998 69.3403 89.5848C69.3403 89.0628 68.9691 88.6016 68.2355 88.2058" fill="black"/>
<path d="M64.5413 89.9589C64.3012 90.1416 63.9999 90.2329 63.6374 90.2329C63.192 90.2329 62.8121 90.0589 62.489 89.6935C62.1528 89.3368 61.9563 88.7539 61.9388 87.9666H65.2138C65.2138 87.3532 65.0348 86.8877 64.6723 86.5571C64.3012 86.2178 63.8863 86.0612 63.3929 86.0612C62.7379 86.0612 62.2008 86.3048 61.786 86.8007C61.3755 87.3097 61.1877 87.897 61.1877 88.5843C61.1877 89.2237 61.3493 89.7805 61.7074 90.259C62.0567 90.7462 62.5589 90.9855 63.2051 90.9855C63.7597 90.9855 64.24 90.8027 64.633 90.4373C65.0129 90.0632 65.2837 89.663 65.419 89.228L65.2356 89.1584C65.0348 89.5021 64.799 89.7762 64.5457 89.9589M62.1921 86.9486C62.406 86.605 62.6942 86.4353 63.0785 86.4353C63.4628 86.4353 63.7553 86.5919 63.9387 86.8877C64.013 87.0574 64.0916 87.314 64.1265 87.6446H61.9432C62.0043 87.3619 62.0916 87.14 62.1921 86.9486Z" fill="black"/>
<path d="M107.745 90.3547C107.614 90.3547 107.522 90.2981 107.474 90.1633C107.453 90.0937 107.448 89.9501 107.448 89.7587V87.6751C107.448 87.2401 107.356 86.8877 107.252 86.6441C107.003 86.2135 106.553 85.996 105.889 85.996C105.317 85.996 104.876 86.1352 104.571 86.3918C104.274 86.6485 104.112 86.9008 104.112 87.1444C104.112 87.2662 104.16 87.3837 104.252 87.4837C104.322 87.5838 104.435 87.6316 104.601 87.6316C104.71 87.6316 104.785 87.6099 104.863 87.5664C104.994 87.4881 105.042 87.3488 105.042 87.1618C105.042 87.1444 105.033 87.0748 105.016 86.9791C105.016 86.879 105.016 86.8007 105.016 86.7659C105.016 86.6006 105.099 86.4702 105.234 86.3745C105.405 86.2875 105.579 86.2527 105.745 86.2527C106.116 86.2527 106.352 86.3614 106.479 86.5963C106.536 86.7355 106.57 86.9791 106.57 87.3271V87.7621C105.632 88.1188 105.003 88.3972 104.675 88.5973C104.169 88.9453 103.92 89.3542 103.92 89.8588C103.92 90.172 104.047 90.4417 104.265 90.6548C104.479 90.8506 104.745 90.9507 105.02 90.9507C105.317 90.9507 105.614 90.868 105.92 90.6853C106.112 90.5722 106.339 90.4026 106.575 90.1764C106.592 90.3765 106.653 90.5635 106.763 90.707C106.867 90.8506 107.042 90.9289 107.278 90.9289C107.474 90.9289 107.667 90.868 107.863 90.7375C107.985 90.6592 108.116 90.5504 108.217 90.4112V90.1633C108.099 90.2503 108.003 90.3112 107.942 90.3286C107.898 90.3547 107.846 90.3591 107.745 90.3591M106.57 89.663C106.57 89.8588 106.479 90.0241 106.256 90.1546C106.06 90.2851 105.837 90.3416 105.614 90.3416C105.431 90.3416 105.3 90.2982 105.164 90.2025C104.942 90.0415 104.85 89.8066 104.85 89.4934C104.85 89.1019 105.103 88.7496 105.601 88.4494C105.859 88.2928 106.186 88.1449 106.575 88.01V89.6587L106.57 89.663Z" fill="black"/>
<path d="M117.308 67.7913C117.592 67.6347 118.256 67.2519 118.802 66.5733V79.7364H117.308V67.7913ZM88.5842 67.7913V79.7364H90.082V66.5733C89.5231 67.2475 88.8506 67.6347 88.5842 67.7913ZM35.4812 66.5733C34.9223 67.2475 34.2629 67.6303 33.9834 67.7869V76.587H35.4812V66.5733ZM40.5727 67.7913V78.2269H38.7868V67.7913C38.516 67.6347 37.8479 67.2519 37.2846 66.5733V78.2226H33.9572V79.732H42.0749V66.5689C41.5247 67.2388 40.8434 67.6303 40.5727 67.7869M114.112 66.5733V78.2226H112.081V72.4936C111.658 72.9504 110.898 73.3593 110.575 73.5855V78.2226H108.343V72.4936C107.907 72.9721 107.129 73.394 106.824 73.6202V78.2226H105.055V66.5298C104.562 67.0518 103.916 67.5564 103.553 67.813V78.2226H94.274C93.9727 78.2226 93.7544 78.1008 93.5841 77.9616C93.4138 78.4923 93.06 79.732 93.06 79.732H115.553V67.8043C114.928 67.365 114.435 66.9256 114.116 66.5689M101.758 73.803H99.1428V73.0722C99.1428 72.4371 99.2345 72.3022 100.021 72.3022C100.758 72.3022 100.981 72.176 101.103 72.0977V71.5453C100.92 71.641 100.802 71.715 100.361 71.715H99.2651C98.7149 71.715 98.252 72.0977 98.252 72.7633V73.7986H96.1167C96.0163 73.9596 95.7936 74.3511 95.5709 74.7382H101.758V73.7986V73.803ZM52.1356 74.238C52.1356 74.7382 52.1444 76.6957 52.1444 76.7609H55.0657V78.2226H47.0354V74.9079C46.5158 75.5343 45.7341 75.9301 45.4983 76.078V79.7364H56.5853V75.382H53.5679V74.3772C53.5679 72.8329 55.3015 72.0369 56.6028 71.9107V70.4361C52.9391 71.0929 52.1356 73.1983 52.1356 74.238ZM60.2358 75.3211H58.4892V76.4956H59.8385C60.655 76.4956 60.7773 76.9176 60.7773 77.5396V78.2182H58.5459V79.7364H62.2794V77.209C62.2794 76.1519 61.6026 75.3124 60.2358 75.3124M16.0102 70.8841C16.4294 70.8841 16.7569 70.5492 16.7569 70.1446C16.7569 69.7401 16.4251 69.4008 16.0102 69.4008C15.5954 69.4008 15.2592 69.7314 15.2592 70.1446C15.2592 70.5579 15.5954 70.8841 16.0102 70.8841ZM17.1674 70.1446C17.1674 70.5492 17.508 70.8841 17.9228 70.8841C18.3377 70.8841 18.6695 70.5535 18.6695 70.1446C18.6695 69.7357 18.342 69.4008 17.9228 69.4008C17.5036 69.4008 17.1674 69.7314 17.1674 70.1446ZM21.3288 70.8841C21.7568 70.8841 22.0799 70.5492 22.0799 70.1446C22.0799 69.7401 21.7568 69.4008 21.3288 69.4008C20.9009 69.4008 20.5778 69.7314 20.5778 70.1446C20.5778 70.5579 20.9184 70.8841 21.3288 70.8841ZM23.2458 70.8841C23.6519 70.8841 23.9881 70.5492 23.9881 70.1446C23.9881 69.7401 23.6475 69.4008 23.2458 69.4008C22.8441 69.4008 22.5035 69.7314 22.5035 70.1446C22.5035 70.5579 22.8397 70.8841 23.2458 70.8841ZM49.6729 80.4628C49.2493 80.4628 48.9305 80.8021 48.9305 81.2154C48.9305 81.6286 49.2449 81.9592 49.6729 81.9592C50.1008 81.9592 50.4239 81.6199 50.4239 81.2154C50.4239 80.8108 50.0877 80.4628 49.6729 80.4628ZM51.5898 80.4628C51.1706 80.4628 50.8256 80.8021 50.8256 81.2154C50.8256 81.6286 51.1706 81.9592 51.5898 81.9592C52.009 81.9592 52.3453 81.6199 52.3453 81.2154C52.3453 80.8108 52.0046 80.4628 51.5898 80.4628ZM111.23 80.4628C110.806 80.4628 110.47 80.8021 110.47 81.2154C110.47 81.6286 110.806 81.9592 111.23 81.9592C111.653 81.9592 111.972 81.6199 111.972 81.2154C111.972 80.8108 111.645 80.4628 111.23 80.4628ZM107.85 70.5274C108.265 70.5274 108.61 70.1925 108.61 69.7749C108.61 69.3573 108.269 69.031 107.85 69.031C107.431 69.031 107.095 69.3703 107.095 69.7749C107.095 70.1794 107.444 70.5274 107.85 70.5274ZM16.9796 69.3442C17.3988 69.3442 17.7263 69.0006 17.7263 68.596C17.7263 68.1915 17.3988 67.8478 16.9796 67.8478C16.5604 67.8478 16.2373 68.1784 16.2373 68.596C16.2373 69.0136 16.5473 69.3442 16.9796 69.3442ZM30.3198 73.7377C30.9137 73.3419 31.4333 72.9155 31.8438 72.4718V79.7364H12.7527C12.4514 80.6934 11.5562 81.3937 10.4995 81.3937C9.44275 81.3937 8.54322 80.689 8.25939 79.732H5.90575V67.7869C6.18522 67.6303 6.85769 67.2475 7.42099 66.5733V78.2313H8.30305C8.63929 77.3482 9.49515 76.7088 10.5039 76.7088C11.5126 76.7088 12.3597 77.3395 12.7003 78.2226H16.2853V73.5942C16.8792 73.2505 17.4905 72.8503 17.8006 72.4849V78.2226H21.3332V73.5942C21.9576 73.2549 22.534 72.8416 22.8353 72.4675V78.2182H24.3244V76.0736C24.5427 76.0345 24.7523 75.991 24.9794 75.9432C25.2676 75.8823 25.5383 75.8083 25.8352 75.7257V78.2226H27.3461V75.2472C27.8614 75.0471 28.3548 74.8296 28.8351 74.5947V78.2226H30.3241V73.7334M10.4951 80.0974C11.0759 80.0974 11.5344 79.6276 11.5344 79.0577C11.5344 78.4879 11.0715 78.0138 10.4951 78.0138C9.91872 78.0138 9.46022 78.4792 9.46022 79.0577C9.46022 79.6363 9.92309 80.0974 10.4951 80.0974ZM85.4009 66.5689C85.7066 66.93 86.117 67.3562 86.8113 67.8434V79.7538H68.6591V79.8408C68.6591 81.372 66.8164 82.2811 65.371 81.1501C66.9736 81.5764 67.1395 80.5324 67.1395 79.7625V79.7451H64.1222V77.5961C64.1222 76.4521 64.6418 75.5256 66.3099 75.2254C67.4321 75.021 68.1919 74.8035 68.6679 74.4163V76.1911V78.2356H70.0826V76.8088C70.0826 75.9954 70.6066 75.4125 71.7332 75.4125H73.3096V76.5217H71.9167C71.6634 76.5217 71.5892 76.6479 71.5892 76.9828V78.2356H76.4056V76.0824C76.6327 76.0432 76.8466 75.9953 77.0693 75.9518C77.3488 75.8909 77.637 75.817 77.9208 75.7343V78.2356H79.4186V75.2472C79.9382 75.0514 80.4491 74.8383 80.9294 74.6034V78.2356H82.4141V73.7377C83.0167 73.3375 83.5189 72.9155 83.9206 72.4718V78.2356H85.4097V66.5689M67.1351 76.4521C67.1351 76.4521 66.8775 76.5435 66.6679 76.5913C65.8382 76.774 65.6112 77.0437 65.6112 77.644V78.2139H67.1351V76.4477V76.4521ZM2.96699 77.5048V79.7625C2.96699 80.5324 2.79669 81.5764 1.19849 81.1501C2.65695 82.2811 4.48659 81.372 4.48659 79.8408V76.1868C4.09359 77.2699 3.39492 77.5048 2.96699 77.5048Z" fill="black"/>
</g>
<defs>
<clipPath id="clip0_3_2">
<rect width="120" height="100" fill="white"/>
</clipPath>
</defs>
</svg>
