<svg width="120" height="101" viewBox="0 0 120 101" fill="none" xmlns="http://www.w3.org/2000/svg">
<path d="M36.8253 55.6786L38.8094 53.6151C39.4444 54.25 40.1587 54.8056 41.0317 55.2024C41.9047 55.5992 42.7777 55.758 43.7301 55.758C45.4761 55.758 46.746 54.8849 46.9047 53.6945C47.0634 52.504 46.5079 51.8691 43.492 51.1548C40.0793 50.2818 38.2539 49.25 38.6507 46.3135C38.9682 43.4564 41.5872 41.5516 44.8412 41.5516C46.9047 41.5516 48.9682 42.1865 50.5555 43.6151L48.7301 45.758C47.5396 44.7262 46.0317 44.1707 44.5237 44.0913C42.8571 44.0913 41.746 44.9643 41.6666 45.9961C41.5079 47.2659 42.2221 47.8215 45.238 48.6151C48.5714 49.4881 50.1587 50.6786 49.8412 53.377C49.4444 56.4722 46.8253 58.2976 43.4126 58.2976C42.2221 58.2976 41.0317 58.1389 39.9206 57.6627C38.8094 57.1865 37.7777 56.5516 36.984 55.6786H36.8253ZM51.4285 51.9484C51.9047 47.8215 54.9999 45.5199 57.9364 45.5199C58.7301 45.5199 59.5237 45.6786 60.238 46.0754C60.9523 46.4722 61.5079 47.0278 61.9047 47.7421L62.1428 45.8373H64.9999L63.492 58.1389H60.6348L60.8729 56.0754C60.3174 56.7897 59.6825 57.3453 58.8888 57.7421C58.0952 58.1389 57.2221 58.377 56.3491 58.377C53.492 58.377 50.9523 56.0754 51.4285 51.9484ZM61.4285 51.9484C61.746 49.4881 60.238 47.9802 58.3333 47.9802C56.4285 47.9802 54.6031 49.4881 54.2856 51.9484C53.9682 54.4088 55.3968 55.9167 57.3809 55.9167C59.365 55.9167 61.111 54.3294 61.4285 51.9484ZM67.6983 45.758H70.5555L70.3174 47.6627C70.7936 47.0278 71.4285 46.4722 72.1428 46.0754C72.8571 45.6786 73.6507 45.5199 74.4444 45.5199C77.2222 45.5199 78.5714 47.3453 78.2539 50.2024L77.3015 58.0595H74.4444L75.3174 51.0754C75.5555 49.1707 74.7618 48.0595 73.0158 48.0595C71.2698 48.0595 70.0793 49.1707 69.8412 51.0754L68.9682 58.0595H66.111L67.619 45.758H67.6983ZM81.5079 45.758H84.365L82.8571 58.0595H79.9999L81.5079 45.758ZM81.9047 41.1548H84.9206L84.6031 43.8532H81.5872L81.9047 41.1548ZM86.6666 54.6468L87.4602 48.1389H85.8729L86.1904 45.6786H87.7777L88.1745 42.2659H91.0317L90.6348 45.6786H93.9682L93.6507 48.1389H90.3174L89.6031 54.1707C89.4444 55.2818 89.9999 55.6786 90.9523 55.6786C91.5872 55.6786 92.2222 55.5199 92.7777 55.2818L92.4603 57.5834C91.6666 57.9802 90.7142 58.2183 89.8412 58.2183C87.7777 58.2183 86.4285 57.3453 86.746 54.5675L86.6666 54.6468ZM94.2063 51.9484C94.6825 47.8215 97.7777 45.5199 100.714 45.5199C101.508 45.5199 102.302 45.6786 103.016 46.0754C103.73 46.4722 104.286 47.0278 104.682 47.7421L104.921 45.8373H107.778L106.27 58.1389H103.413L103.651 56.0754C103.095 56.7897 102.46 57.3453 101.667 57.7421C100.873 58.1389 99.9999 58.377 99.1269 58.377C96.1904 58.377 93.6507 56.0754 94.2063 51.9484ZM104.127 51.9484C104.444 49.4881 102.936 47.9802 101.032 47.9802C99.1269 47.9802 97.3015 49.4881 96.9841 51.9484C96.6666 54.4088 98.0952 55.9167 99.9999 55.9167C101.905 55.9167 103.73 54.3294 104.048 52.0278L104.127 51.9484ZM108.095 56.4722L109.603 54.5675C110.635 55.5199 112.063 55.9961 113.413 56.0754C114.603 56.0754 115.397 55.5992 115.476 54.7262C115.635 53.6945 114.365 53.377 112.936 52.9802C111.19 52.4246 109.206 51.7103 109.524 49.3294C109.841 46.9484 111.905 45.5199 114.365 45.5199C115.952 45.5199 117.46 45.9961 118.73 46.9484L117.381 48.9326C116.429 48.2183 115.238 47.8215 114.048 47.7421C112.936 47.7421 112.222 48.2183 112.143 48.9326C112.063 49.8849 113.333 50.2818 114.682 50.758C116.429 51.3135 118.333 52.1072 118.095 54.3294C117.778 56.9484 115.635 58.2183 113.016 58.2183C111.19 58.2183 109.444 57.5834 108.016 56.3929L108.095 56.4722Z" fill="#0079C8"/>
<path d="M28.5715 37.1865H3.17465V61.4722H28.5715V37.1865Z" fill="#0079C8"/>
<path d="M22.7139 52.5278C22.6425 52.3723 22.5711 52.2167 22.4282 52.0611C22.4282 52.0611 22.2854 51.9056 22.1425 51.9056C22.0711 51.9056 21.9282 51.9056 21.8568 51.9056C21.7854 51.9056 21.6425 51.9056 21.5711 52.0611C21.4997 52.0611 21.4282 52.2167 21.3568 52.2945L19.7854 55.95L18.5711 41.0167C18.5711 40.7834 18.4997 40.6278 18.3568 40.4723C18.2139 40.3167 18.0711 40.2389 17.8568 40.2389C17.6425 40.2389 17.4997 40.2389 17.3568 40.3945C17.2139 40.4723 17.1425 40.7056 17.0711 40.8611L14.4282 53.3834L13.5711 51.5945C13.5711 51.5167 13.4997 51.4389 13.4282 51.3611C13.4282 51.3611 13.2854 51.2834 13.214 51.2056C13.1425 51.2056 13.0711 51.2056 12.9282 51.2056C12.8568 51.2056 12.7854 51.2056 12.714 51.2834C12.5711 51.3611 12.4997 51.5167 12.4282 51.6723C12.1425 52.2945 11.6425 52.8389 11.0711 53.2278C10.4997 53.6167 9.85681 53.7723 9.21395 53.7723H2.85681V55.0945H9.14252C9.85681 55.0945 10.6425 54.9389 11.2854 54.6278C11.9282 54.2389 12.4997 53.7723 12.9997 53.0723L14.1425 55.4056C14.1425 55.5611 14.2854 55.6389 14.4282 55.7167C14.5711 55.7167 14.6425 55.7945 14.7854 55.7167C14.9282 55.7167 14.9997 55.7167 15.1425 55.5611C15.214 55.4834 15.2854 55.3278 15.3568 55.25L17.7854 43.6611L18.9282 57.7389C18.9282 57.8945 18.9282 58.05 19.0711 58.2056C19.1425 58.3611 19.2854 58.4389 19.4282 58.4389C19.5711 58.4389 19.7139 58.4389 19.8568 58.4389C19.9997 58.4389 20.0711 58.2056 20.1425 58.1278L21.9997 54.0056C22.1425 54.3167 22.4282 54.6278 22.7139 54.8611C22.9997 55.0945 23.3568 55.1723 23.7139 55.1723H25.7139V53.85H23.7139C23.2854 53.85 22.8568 53.0723 22.6425 52.6056L22.7139 52.5278Z" fill="white"/>
</svg>
