<svg width="121" height="101" viewBox="0 0 121 101" fill="none" xmlns="http://www.w3.org/2000/svg">
<g clip-path="url(#clip0_1447_10767)">
<g clip-path="url(#clip1_1447_10767)">
<path d="M51.4315 58.6065C50.99 58.7852 50.5063 58.8746 49.9912 58.8746C49.4761 58.8746 49.0135 58.7852 48.5772 58.6117C48.1356 58.4382 47.7466 58.1807 47.4102 57.8548C47.079 57.5288 46.8162 57.1294 46.6269 56.6773C46.4378 56.2253 46.3431 55.7153 46.3431 55.1634V44.8184L43.2522 44.8394V55.1897C43.2522 56.5091 43.5361 57.676 44.1038 58.6485C44.6662 59.621 45.4653 60.3885 46.4693 60.9246C47.4785 61.4608 48.6613 61.7341 49.9859 61.7341C51.3106 61.7341 52.4986 61.4608 53.5026 60.9246C54.5066 60.3885 55.3056 59.621 55.8681 58.6485C56.4305 57.6708 56.7197 56.5091 56.7197 55.1897V44.8184H53.634V55.1634C53.634 55.7101 53.5394 56.2147 53.3554 56.6668C53.1714 57.1188 52.9139 57.5131 52.5827 57.8442C52.2567 58.1702 51.8626 58.4278 51.4262 58.6117L51.4315 58.6065Z" fill="#005265"/>
<path d="M70.4552 51.9307C70.3133 51.3892 70.0662 50.8583 69.7246 50.3537C69.3882 49.8543 68.9098 49.4337 68.3001 49.1079C67.6903 48.7819 66.8965 48.6138 65.9293 48.6138C64.7203 48.6138 63.7005 48.8818 62.9068 49.4022C62.5388 49.644 62.2024 49.9331 61.9132 50.2538L61.8186 50.3589V48.9817H59.122V61.382H62.2129V55.0899C62.2129 54.3066 62.3022 53.6706 62.4757 53.1922C62.6492 52.7139 62.8805 52.3459 63.1538 52.0988C63.4272 51.8518 63.7268 51.6836 64.0422 51.5943C64.3524 51.5101 64.6519 51.4628 64.9253 51.4628C65.6087 51.4628 66.1448 51.6205 66.5181 51.9254C66.8913 52.2303 67.1646 52.6192 67.3276 53.0713C67.4905 53.5234 67.5904 53.9755 67.6219 54.4223C67.6535 54.8691 67.6693 55.237 67.6693 55.5209V61.3715H70.7549V54.4065C70.7549 54.2015 70.7391 53.8651 70.7076 53.413C70.676 52.9609 70.5866 52.4563 70.4447 51.9096L70.4552 51.9307Z" fill="#005265"/>
<path d="M76.3994 45.7701C76.3994 44.8382 75.644 44.0827 74.7122 44.0827C73.7804 44.0827 73.025 44.8382 73.025 45.7701V45.8437C73.025 46.7755 73.7804 47.531 74.7122 47.531C75.644 47.531 76.3994 46.7755 76.3994 45.8437V45.7701Z" fill="#005265"/>
<path d="M73.1938 61.3872H76.2321V48.9869L73.1938 49.9016V61.3872Z" fill="#005265"/>
<path d="M102.258 64.1153V66.9486H103.809C104.849 66.9486 105.679 66.6543 106.29 66.0655C106.899 65.4821 107.204 64.6884 107.204 63.7106V48.9869L104.161 49.9016V62.1809C104.161 62.7907 104.024 63.2743 103.751 63.6055C103.478 63.9419 102.988 64.1101 102.252 64.1101L102.258 64.1153Z" fill="#005265"/>
<path d="M107.372 45.7701C107.372 44.8382 106.616 44.0827 105.684 44.0827C104.752 44.0827 103.996 44.8382 103.996 45.7701V45.8437C103.996 46.7755 104.752 47.531 105.684 47.531C106.616 47.531 107.372 46.7755 107.372 45.8437V45.7701Z" fill="#005265"/>
<path d="M4.83685 42.6211C6.76603 41.3385 8.91597 40.3187 11.2605 39.6407C13.6049 38.9625 16.0545 38.6576 18.4146 38.7312L18.0572 65.7239L4.83685 42.6211Z" fill="#2BD124"/>
<path d="M20.712 32.25C27.2459 32.9123 33.3646 35.7194 38.1113 40.1559L20.2651 65.682L20.712 32.25Z" fill="#2BD124"/>
<path d="M5.84638 48.8448L14.9876 64.8144L0.763245 56.9505C1.6779 53.8491 3.4336 51.0316 5.84638 48.8395V48.8448Z" fill="#2BD124"/>
<path d="M102.189 52.2512C102.141 51.7991 101.999 51.3366 101.752 50.8793C101.511 50.4272 101.206 50.0434 100.838 49.7386C100.601 49.5388 100.296 49.3391 99.8335 49.1446C97.0106 47.9671 94.5615 49.0079 94.5615 49.0079C94.3034 49.1183 93.9304 49.2865 93.4945 49.6019C91.9591 50.7163 91.5759 52.4247 91.4812 52.9346L94.5615 52.8873C94.6294 52.656 94.8087 52.1672 95.2764 51.7729C95.3444 51.7151 95.6024 51.4996 95.9914 51.3629C96.6853 51.1106 97.8781 51.0632 98.6408 51.8622C99.1873 52.4352 99.2451 53.1554 99.2502 53.4077V53.4603L99.2032 53.4655C98.6718 53.5443 98.1622 53.6179 97.6887 53.6915C96.8798 53.8125 96.1489 53.9386 95.5128 54.07C94.8767 54.2014 94.3251 54.3538 93.8624 54.5221C93.1995 54.7639 92.669 55.0741 92.275 55.4314C91.8861 55.7889 91.602 56.2094 91.4234 56.6773C91.2499 57.1451 91.1603 57.4185 91.1603 57.9914C91.1603 58.6748 91.3179 59.3056 91.6338 59.8681C91.949 60.4305 92.4167 60.8878 93.0261 61.2243C93.6362 61.5607 94.393 61.7341 95.2764 61.7341C96.3434 61.7341 97.2369 61.5449 97.9309 61.1769C98.4774 60.8878 99.0029 60.4463 99.4974 59.8681L99.5921 59.7524V61.3872H102.241V53.7967C102.241 53.2289 102.221 52.7085 102.173 52.2512H102.189ZM99.2342 55.9729C99.2292 56.2042 99.2183 56.1989 99.2032 56.4618C99.1764 56.9191 99.0767 57.3238 98.914 57.6708C98.8244 57.8548 98.6617 58.0808 98.4246 58.3436C98.1882 58.6117 97.8622 58.8483 97.4574 59.0586C97.0533 59.2688 96.5538 59.374 95.9704 59.374C95.6024 59.374 95.2764 59.3161 95.0133 59.2057C94.74 59.0954 94.5297 58.9323 94.3829 58.7168C94.2355 58.5066 94.1567 58.5014 94.1567 58.2017C94.1567 57.9861 94.2037 57.7864 94.2984 57.6077C94.388 57.4342 94.5347 57.266 94.7292 57.1188C94.9186 56.9716 95.1767 56.835 95.4868 56.7141C95.76 56.6142 96.0752 56.5196 96.4323 56.4355C96.7851 56.3514 97.2579 56.2568 97.8362 56.1516C98.2092 56.0833 98.6559 56.0097 99.1714 55.9203L99.2342 55.9099V55.9782V55.9729Z" fill="#005265"/>
<path d="M86.8872 56.6672C86.8713 56.8563 86.7817 57.7816 86.0089 58.4018C85.3887 58.8959 84.7055 58.9012 84.3535 58.9012C83.3913 58.9012 82.6503 58.5543 82.1609 57.8656C81.6723 57.1823 81.425 56.2834 81.425 55.1848C81.425 54.4856 81.5248 53.8496 81.7301 53.2977C81.9354 52.7405 82.2556 52.2884 82.6865 51.9625C83.1181 51.6366 83.6805 51.4683 84.3535 51.4683C84.6267 51.4683 84.8949 51.5104 85.1472 51.5893C85.1942 51.605 85.5831 51.7312 85.946 52.0203C86.6768 52.5933 86.8923 53.4658 86.9501 53.7235H90.0513C90.0513 53.3082 90.0253 53.0296 89.9617 52.7089C89.773 51.7469 89.3205 51.0478 89.0212 50.6641C88.9106 50.5221 88.5903 50.1227 88.0749 49.739C87.0867 49.003 85.8513 48.6298 84.3954 48.6298C83.139 48.6298 82.0301 48.9136 81.1099 49.4814C80.1896 50.0438 79.4646 50.8271 78.96 51.81C78.4554 52.793 78.1973 53.9284 78.1973 55.1795C78.1973 56.4306 78.4446 57.545 78.934 58.5279C79.4226 59.5109 80.1318 60.2995 81.047 60.8672C81.9614 61.4401 83.0703 61.7292 84.3535 61.7292C85.0626 61.7292 86.5662 61.7187 87.9802 60.6621C88.385 60.3625 89.6147 59.3533 89.9617 57.6764C90.0303 57.3505 90.0462 57.0719 90.0513 56.6619H86.8923L86.8872 56.6672Z" fill="#005265"/>
<path d="M119.899 52.2512C119.852 51.7991 119.709 51.3366 119.462 50.8793C119.22 50.4272 118.915 50.0434 118.547 49.7386C118.311 49.5388 118.006 49.3391 117.543 49.1446C114.72 47.9671 112.271 49.0079 112.271 49.0079C112.014 49.1183 111.64 49.2865 111.204 49.6019C109.669 50.7163 109.286 52.4247 109.191 52.9346L112.271 52.8873C112.339 52.656 112.519 52.1672 112.986 51.7729C113.054 51.7151 113.312 51.4996 113.701 51.3629C114.395 51.1106 115.588 51.0632 116.351 51.8622C116.897 52.4352 116.955 53.1554 116.96 53.4077V53.4603L116.913 53.4655C116.382 53.5443 115.872 53.6179 115.399 53.6915C114.59 53.8125 113.859 53.9386 113.223 54.07C112.586 54.2014 112.035 54.3538 111.572 54.5221C110.909 54.7639 110.379 55.0741 109.985 55.4314C109.596 55.7889 109.312 56.2094 109.133 56.6773C108.96 57.1451 108.87 57.4185 108.87 57.9914C108.87 58.6748 109.028 59.3056 109.344 59.8681C109.659 60.4305 110.127 60.8878 110.737 61.2243C111.346 61.5607 112.103 61.7341 112.986 61.7341C114.053 61.7341 114.947 61.5449 115.641 61.1769C116.187 60.8878 116.713 60.4463 117.207 59.8681L117.302 59.7524V61.3872H119.951V53.7967C119.951 53.2289 119.93 52.7085 119.883 52.2512H119.899ZM116.944 55.9729C116.939 56.2042 116.928 56.1989 116.913 56.4618C116.886 56.9191 116.786 57.3238 116.624 57.6708C116.534 57.8548 116.372 58.0808 116.134 58.3436C115.898 58.6117 115.572 58.8483 115.167 59.0586C114.763 59.2688 114.264 59.374 113.68 59.374C113.312 59.374 112.986 59.3161 112.723 59.2057C112.45 59.0954 112.24 58.9323 112.093 58.7168C111.945 58.5066 111.866 58.5014 111.866 58.2017C111.866 57.9861 111.913 57.7864 112.008 57.6077C112.098 57.4342 112.245 57.266 112.44 57.1188C112.628 56.9716 112.887 56.835 113.197 56.7141C113.47 56.6142 113.785 56.5196 114.143 56.4355C114.495 56.3514 114.968 56.2568 115.546 56.1516C115.919 56.0833 116.366 56.0097 116.881 55.9203L116.944 55.9099V55.9782V55.9729Z" fill="#005265"/>
</g>
</g>
<defs>
<clipPath id="clip0_1447_10767">
<rect width="120" height="100" fill="white" transform="translate(0.0400391 0.25)"/>
</clipPath>
<clipPath id="clip1_1447_10767">
<rect width="120" height="34" fill="white" transform="translate(0.0400391 32.25)"/>
</clipPath>
</defs>
</svg>
