<svg width="120" height="100" viewBox="0 0 120 100" fill="none" xmlns="http://www.w3.org/2000/svg">
<g clip-path="url(#clip0_1_18)">
<path d="M57.1231 46.6916L54.9269 40.8579H51.9531L55.8537 50.0759H58.3281L62.245 40.8579H59.3231L57.1231 46.6916Z" fill="black"/>
<path d="M67.5156 46.4406H72.145V44.425H67.5156V43.0223H72.6244V40.8579H64.8656V50.0759H72.6925V47.9055H67.5156V46.4406Z" fill="black"/>
<path d="M92.7481 44.3354C91.3974 44.0474 91.0637 43.8616 91.0637 43.4405V43.4094C91.0637 43.0689 91.3812 42.818 92.0293 42.818C92.6774 42.818 93.8468 43.1215 94.7281 43.7254L96.0662 41.9231C95.0231 41.1178 93.7399 40.6966 92.1012 40.6966C90.4624 40.6966 88.3693 41.938 88.3693 43.6442V43.6753C88.3693 45.5577 89.9537 46.1121 92.0106 46.5548C93.3324 46.8582 93.6499 47.0566 93.6499 47.4497V47.4807C93.6499 47.8708 93.2643 48.1158 92.5356 48.1158C91.4212 48.1158 90.3718 47.7316 89.4062 47.007L87.9162 48.7072C89.1149 49.7198 90.7281 50.2366 92.4387 50.2366C94.1493 50.2366 96.3424 49.1129 96.3424 47.2364V47.2053C96.3424 45.4776 94.9656 44.7966 92.7562 44.3318" fill="black"/>
<path d="M105.498 46.0505C105.498 47.3415 104.795 47.9485 103.707 47.9485C102.619 47.9485 101.928 47.3135 101.928 45.9824V40.8579H99.2294V46.035C99.2294 48.9145 100.952 50.2521 103.681 50.2521C106.409 50.2521 108.203 48.936 108.203 45.9759V40.8639H105.504V46.0505H105.498Z" fill="black"/>
<path d="M115.901 44.3354C114.55 44.0474 114.216 43.8616 114.216 43.4405V43.4094C114.216 43.0689 114.534 42.818 115.182 42.818C115.83 42.818 116.999 43.1215 117.881 43.7254L119.219 41.9231C118.169 41.1178 116.892 40.6966 115.254 40.6966C113.615 40.6966 111.522 41.938 111.522 43.6442V43.6753C111.522 45.5577 113.106 46.1121 115.163 46.5548C116.485 46.8582 116.802 47.0566 116.802 47.4497V47.4807C116.802 47.8708 116.417 48.1158 115.688 48.1158C114.574 48.1158 113.524 47.7316 112.559 47.007L111.069 48.7072C112.267 49.7198 113.881 50.2366 115.591 50.2366C117.302 50.2366 119.495 49.1129 119.495 47.2364V47.2053C119.495 45.4776 118.118 44.7966 115.909 44.3318" fill="black"/>
<path d="M79.0225 45.4436V42.9912H80.2731C80.7587 42.9912 81.1381 43.0934 81.41 43.3007C81.6787 43.508 81.8181 43.8115 81.8181 44.2081V44.2392C81.8181 44.6078 81.6787 44.9047 81.41 45.1186C81.1412 45.3325 80.7618 45.4436 80.2893 45.4436H79.0225ZM83.1431 46.7286C83.2043 46.685 83.2662 46.648 83.3275 46.6014C83.7 46.3194 83.985 45.9729 84.1925 45.5607C84.4 45.1491 84.5 44.6753 84.5 44.1269V44.0958C84.5 43.585 84.4062 43.1358 84.215 42.7302C84.0306 42.3245 83.7581 41.984 83.4118 41.7116C83.065 41.4296 82.6375 41.2253 82.145 41.0765C81.6493 40.9278 81.1018 40.8537 80.4893 40.8537H76.3556V50.0717H79.0281V47.4335H80.35C80.4668 47.4335 80.5831 47.4335 80.69 47.4276C81.27 48.8613 82.6206 50.236 85.0568 50.236V47.7896C83.9362 47.7896 83.395 47.2663 83.1393 46.7244" fill="black"/>
<path d="M102.314 56.8045H100.963V57.9348H102.34C102.887 57.9348 103.189 57.7364 103.189 57.3744V57.3589C103.189 57.0273 102.91 56.8045 102.314 56.8045M102.932 55.0612C102.932 54.7207 102.647 54.5379 102.129 54.5379H100.963V55.6156H102.084C102.625 55.6156 102.932 55.4394 102.932 55.0827V55.0612ZM99.2331 53.1692H102.524C103.327 53.1692 103.901 53.361 104.271 53.7081C104.526 53.959 104.679 54.284 104.679 54.7052V54.7207C104.679 55.4298 104.254 55.851 103.691 56.0864C104.471 56.3307 104.967 56.7519 104.967 57.5853V57.6008C104.967 58.6505 104.069 59.2915 102.541 59.2915H99.2331V53.1603V53.1698V53.1692Z" fill="black"/>
<path d="M106.697 53.1693V59.3034H111.899V57.8541H108.453V56.8791H111.534V55.541H108.453V54.603H111.851V53.1693H106.697Z" fill="black"/>
<path d="M113.383 53.1693V54.6556H115.291V59.3034H117.067V54.6556H118.991V53.1693H113.383Z" fill="black"/>
<path d="M13.3906 46.924L6.95065 40.7713L0.506897 46.924L13.3906 59.2293L26.2644 46.924L19.8275 40.7713L13.3906 46.924Z" fill="#06FFD8"/>
<path d="M32.7013 40.7713L26.2644 46.924L32.7013 53.0767L26.2644 59.2293H32.7013H39.1375L45.5744 53.0767L39.1375 46.924L45.5744 40.7713H32.7013Z" fill="#06FFD8"/>
</g>
<defs>
<clipPath id="clip0_1_18">
<rect width="120" height="20" fill="white" transform="translate(0 40)"/>
</clipPath>
</defs>
</svg>
