<?xml version="1.0" encoding="UTF-8"?>
<svg xmlns="http://www.w3.org/2000/svg" version="1.1" viewBox="0 0 120 100">
  <defs>
    <style>
      .cls-1 {
        fill: #0054a4;
      }

      .cls-2 {
        fill: #fd0;
      }
    </style>
  </defs>
  <!-- Generator: Adobe Illustrator 28.7.1, SVG Export Plug-In . SVG Version: 1.2.0 Build 142)  -->
  <g>
    <g id="Capa_3">
      <g>
        <polygon class="cls-1" points="71.4 34.5 81.8 34.5 81.8 56.8 93.7 56.8 88.5 65.8 71.4 65.8 71.4 34.5"/>
        <polygon class="cls-1" points="23.8 34.5 17.8 52.1 13.1 38.6 15.4 34.5 0 34.5 12.7 66 22.7 66 35.3 34.5 23.8 34.5"/>
        <polygon class="cls-1" points="89.5 34.5 89.5 43.4 98.7 43.4 98.7 65.8 109.1 65.8 109.1 43.4 115.4 43.4 120 34.5 89.5 34.5"/>
        <g>
          <path class="cls-2" d="M43.7,50c0-4.4,3.6-8,8-8s8,3.6,8,8-3.6,8-8,8-8-3.6-8-8M40.1,50c0,6.4,5.2,11.6,11.6,11.6s11.6-5.2,11.6-11.6-5.2-11.6-11.6-11.6-11.6,5.2-11.6,11.6"/>
          <path class="cls-2" d="M48.3,50c0-1.9,1.5-3.4,3.4-3.4s3.4,1.5,3.4,3.4-1.5,3.4-3.4,3.4-3.4-1.5-3.4-3.4M46.5,49.4c-.4,2.9,1.7,5.5,4.6,5.8,2.9.4,5.5-1.7,5.8-4.6.4-2.9-1.7-5.5-4.6-5.8-2.9-.4-5.5,1.7-5.8,4.6"/>
          <path class="cls-2" d="M38.7,50c0-7.2,5.8-13,13-13s13,5.8,13,13-5.8,13-13,13-13-5.8-13-13M35.1,50c0,9.1,7.4,16.5,16.5,16.5s16.5-7.4,16.5-16.5-7.4-16.5-16.5-16.5-16.5,7.4-16.5,16.5"/>
        </g>
      </g>
    </g>
  </g>
</svg>