<svg width="120" height="100" viewBox="0 0 120 100" fill="none" xmlns="http://www.w3.org/2000/svg">
<g clip-path="url(#clip0_1_46)">
<mask id="mask0_1_46" style="mask-type:luminance" maskUnits="userSpaceOnUse" x="0" y="0" width="120" height="100">
<path d="M119.802 0H0.793434V100H119.802V0Z" fill="white"/>
</mask>
<g mask="url(#mask0_1_46)">
<mask id="mask1_1_46" style="mask-type:luminance" maskUnits="userSpaceOnUse" x="0" y="5" width="120" height="91">
<path d="M119.802 5H0.793434V95.6706H119.802V5Z" fill="white"/>
</mask>
<g mask="url(#mask1_1_46)">
<path d="M93.1824 73.3736C93.8055 72.2129 94.2972 69.2633 92.1672 69.4232C89.6997 69.6106 90.1688 76.2273 90.1688 76.2273C90.9935 75.3248 92.233 75.1397 93.1824 73.3736Z" fill="#D71A21"/>
<path d="M68.9985 79.2431C68.9985 80.1639 69.6103 81.0618 70.4668 81.0618C71.9939 81.0618 72.3429 80.5568 72.6874 80.2484L72.6805 74.2144C71.9033 75.1694 68.9985 75.6652 68.9985 79.2431Z" fill="#D71A21"/>
<path d="M75.4109 42.8538C77.0831 44.2087 77.8761 42.7533 76.7546 41.1997C76.3105 40.5851 74.5906 40.761 74.083 41.3048C74.083 41.3048 74.9826 42.5088 75.4109 42.8538Z" fill="#D71A21"/>
<path d="M60.9116 35.1083C60.0959 33.6689 57.5151 30.998 57.5151 30.998C57.5151 30.998 52.9947 35.6864 52.8451 35.8463C52.1268 36.6048 52.0022 36.7922 51.3315 37.1989H59.5294C61.75 37.1989 61.3082 35.8075 60.9116 35.1083Z" fill="#D71A21"/>
<path d="M0.793434 5V95.6706H119.802V5H0.793434ZM64.8202 36.0887C64.8271 35.7277 64.8202 25.6519 64.8202 25.2315C64.8202 23.4746 65.7493 22.0557 66.0144 21.777C66.3429 21.432 69.8664 18.2265 70.1043 17.9843L71.0922 18.014C70.8701 18.2516 69.6103 19.3117 69.2297 19.7413C68.8558 20.1617 68.1329 21.0299 68.1329 22.5949C68.1329 23.0153 68.1262 32.561 68.1262 33.0271C68.1262 35.008 67.0907 36.2692 66.6556 36.7673C66.3225 37.1511 63.1299 40.0048 62.8241 40.2995L61.886 40.2835C62.031 40.1236 63.6896 38.6042 63.9592 38.3323C64.3421 37.9485 64.8066 36.8564 64.8202 36.0887ZM47.9984 36.0544C48.3723 36.4908 48.7506 37.0003 49.6684 36.9866C50.3843 36.9752 51.1367 36.4086 51.3383 36.2052C51.5467 35.9928 56.8444 30.4088 56.8444 30.4088C56.8444 30.4088 54.3633 28.0898 52.7296 26.9862C51.9319 26.447 50.8738 27.1279 50.7129 27.8384C50.2122 30.0592 50.7129 33.3904 50.7129 33.3904C50.7129 33.3904 49.0928 31.7614 48.7031 31.3684C47.8942 30.5505 47.9236 28.7021 48.8866 27.7288C49.0384 27.5734 50.5067 25.8987 52.3738 25.8987H55.2786C57.2296 25.8987 59.3618 27.8567 59.3618 27.8567C59.3618 27.8567 59.6744 27.5117 59.6744 27.1759C59.6744 26.1683 59.6359 23.4517 59.6359 23.4517C58.1699 21.9712 57.9705 20.4473 58.673 19.739C59.9849 18.4161 60.4629 17.95 60.4629 17.95C60.4629 17.95 60.4471 19.5585 61.9788 21.1007C62.5045 21.6308 63.6375 23.0679 62.9577 23.7533C62.3573 24.3588 61.4282 25.3184 61.4282 25.3184C61.3807 24.9711 60.5105 24.1394 60.5105 24.1394C60.5105 24.1394 60.5197 26.6915 60.5105 27.0068C60.4811 28.1583 60.0506 28.4873 60.0506 28.4873C60.0506 28.4873 62.1624 30.6007 62.1624 33.3127C62.1624 34.6287 62.1669 35.8397 62.1669 36.1001C62.1669 36.6553 62.0287 37.0871 61.6435 37.5144C61.4532 37.7269 59.4977 39.7101 59.1986 39.9797C58.6322 40.4937 58.0363 40.5805 57.5876 40.5805H50.3096C49.1631 40.5805 47.9825 39.6781 47.9825 38.7756C47.9825 38.5494 47.9984 36.0544 47.9984 36.0544ZM45.1344 31.5923C45.2884 31.6586 46.1336 32.0013 46.1336 35.2776C46.1336 35.2776 46.0769 39.0863 46.0769 39.2897C46.0769 40.9507 47.3866 42.8539 49.2764 42.8539C49.6638 42.8539 64.8044 42.8379 64.8044 42.8379C64.8179 42.4175 65.2349 40.8204 65.9804 39.9751C66.4041 39.4999 69.735 36.4269 70.1156 36.1321L71.1013 36.1207C70.954 36.2578 69.3452 37.7132 68.9849 38.097C68.5477 38.5608 68.1307 39.6986 68.1307 40.6994V42.8356H70.281C71.1172 42.8356 72.2184 42.0679 72.4585 41.6635C72.4721 41.6338 72.4585 39.5433 72.4585 39.5433C72.4585 39.5433 73.0114 40.3406 73.6073 40.761C73.8316 40.4754 75.787 38.0833 77.4276 38.0696C80.1625 38.0467 79.5462 41.5287 78.4268 42.6414C78.0643 43.0001 76.4487 44.4943 75.948 44.9741C74.6565 46.2148 72.4449 45.6207 72.4449 42.4152C72.4449 42.4152 70.0703 44.6885 69.7145 44.9878C69.3565 45.2894 68.1329 46.5963 68.1329 46.5963V52.2282C68.1329 54.9288 67.2516 55.8359 66.5197 56.647C66.2364 56.9623 63.2206 59.7382 62.8172 60.0375L61.8315 60.0604C61.8315 60.0604 63.5967 58.4428 63.9502 58.0727C64.3512 57.6523 64.8202 56.7955 64.8202 55.3721C64.8202 55.0111 64.7749 46.5232 64.7749 46.5232H51.055C46.2831 46.5232 45.2635 41.1837 45.234 39.7535C45.225 39.3331 45.234 35.0674 45.234 34.4071C45.234 33.5298 44.6766 32.0493 43.7884 31.5923H45.1344ZM72.2092 51.769C71.9623 51.504 70.707 50.1971 70.707 50.1971V45.8675C70.707 45.8675 71.8468 46.9505 72.0258 47.1309C72.3542 47.4622 73.5348 48.5658 73.5348 50.4621V56.1078C73.5348 58.1412 72.9411 60.3163 71.3369 61.9362C69.7304 63.5538 67.2969 64.703 64.6368 64.703H62.0197L58.111 61.2599H64.6843C67.2085 61.2599 69.0416 59.5143 69.6851 58.8815C73.3558 55.2715 73.3694 53.0119 72.2092 51.769ZM57.4335 51.392C57.4335 52.1483 55.0384 54.1543 54.898 54.2959C54.7257 53.4826 54.1208 52.5824 52.3353 50.782L54.9569 48.1385C56.713 49.9115 57.4335 50.2885 57.4335 51.392ZM52.077 51.4034C52.077 52.1574 49.682 54.1657 49.5415 54.3074C49.3693 53.4917 48.7642 52.5938 46.9788 50.7911L49.5981 48.1477C51.3564 49.9206 52.077 50.2976 52.077 51.4034ZM43.4984 43.3702C43.4984 43.3702 44.4999 43.3702 44.4976 47.0556V50.6403C44.4976 54.9997 48.3926 57.5906 51.2748 57.5197C51.7506 57.506 58.7568 57.5038 59.1012 57.5038C60.8165 57.5038 62.2893 54.9471 60.438 53.4734C60.0438 53.1604 59.1442 52.1963 59.1442 52.1963V47.773C59.1442 47.773 60.0574 48.6503 60.3882 48.9839C60.9071 49.5071 61.9788 50.2839 61.9788 52.1506V54.3097C61.9788 56.519 61.1858 57.2022 60.4403 58.043C60.2137 58.2943 59.5975 58.9934 59.1238 59.4184C57.8301 60.5745 57.08 61.0977 54.9388 61.0977H51.3769C47.1102 61.0977 43.5981 57.1291 43.5981 52.836V46.2376C43.5981 44.1699 42.1524 43.3702 42.1524 43.3702H43.4984ZM54.9954 65.4639C54.9954 66.4189 54.2114 67.1934 53.2439 67.1934C52.2764 67.1934 51.4901 66.4189 51.4924 65.4639C51.4924 64.5088 52.2764 63.7343 53.2439 63.7343C54.2114 63.7343 54.9954 64.5088 54.9954 65.4639ZM27.9477 80.4679C27.9477 81.2561 27.243 82.7138 25.2241 82.7138H20.8306H19.3985H16.3102C16.3102 82.7138 15.209 82.6361 15.209 79.8624L15.1659 68.811C15.209 66.0533 13.6386 64.6985 13.6386 64.6985H22.6795C27.3087 64.6985 27.678 67.8971 27.678 67.8971C25.752 66.6039 23.8985 66.6405 21.5012 66.6382C21.3245 66.6382 18.7324 66.6291 18.7324 66.6291C19.1425 67.1294 19.1425 68.8224 19.1425 68.8224V69.5741V70.7668H21.0934C24.1024 70.7668 25.1153 73.2275 25.1153 73.2275C23.7082 72.4232 22.2626 72.5969 21.1002 72.5969C20.0624 72.5969 19.1448 72.6197 19.1448 72.6197V78.6858C19.2603 79.6316 19.1583 80.7375 20.4816 80.7375C20.9529 80.7375 24.2475 80.742 24.6735 80.742C27.3359 80.742 27.9772 79.41 27.9772 79.4077L27.9477 80.4679ZM46.0746 82.6795C46.0746 82.6795 44.9712 82.7069 44.9554 79.8121C44.9531 79.2135 44.9598 72.7545 44.9598 72.7545C44.9825 71.6693 44.0332 70.7051 42.9002 70.7051C41.4773 70.7051 40.981 71.7401 40.8405 72.165L40.8519 79.7801C40.8519 81.6651 42.293 82.6886 42.293 82.6886H38.5248C38.5248 82.6886 37.4055 82.6818 37.4055 79.8053L37.4077 72.7317C37.4304 71.6464 36.4221 70.6822 35.5043 70.6822C33.8842 70.6822 33.3178 71.8338 33.2702 72.1719V79.7824C33.2702 81.6194 34.6138 82.6407 34.7113 82.6909H30.9567C30.9567 82.6909 29.8239 82.6407 29.8239 79.8076L29.826 71.2237C29.826 68.9024 28.5073 68.3563 28.5073 68.3563L30.7846 68.3518C33.1094 68.3518 33.1773 71.0364 33.1773 71.0364C33.1773 71.0364 33.9115 68.2581 36.8073 68.2581C38.339 68.2581 40.2083 69.1103 40.7431 70.993C41.0489 70.2984 41.765 68.2787 44.1623 68.2787C45.9727 68.2787 48.4017 69.076 48.4017 72.0759V79.8076C48.4017 81.6879 49.8428 82.6886 49.8428 82.6886C49.8428 82.6886 48.0369 82.6795 46.0746 82.6795ZM52.6797 82.6818C52.6797 82.6818 51.5286 82.7001 51.5286 79.8258V79.8121L51.5332 71.2054C51.5332 68.9344 50.228 68.3518 50.228 68.3518H52.5053C53.3074 68.3518 54.9795 68.3518 54.9795 71.5619L54.9751 79.7893L54.9887 79.8053C54.9887 81.7108 56.4342 82.6909 56.4342 82.6909C56.4342 82.6909 54.6419 82.6818 52.6797 82.6818ZM63.1752 82.6864H59.4207C59.4207 82.6864 58.2878 82.6384 58.2878 79.803L58.2922 71.2077C58.2922 68.8887 56.9712 68.3426 56.9712 68.3426L59.2485 68.3358C60.9139 68.3358 61.5075 68.9961 61.6978 71.2283C61.6978 71.2283 62.2734 68.4043 64.6322 68.4043C66.1911 68.4043 66.5537 69.4348 66.5537 69.4348H66.556V71.868C65.5884 70.6754 63.898 70.4835 62.6609 71.2923C62.1647 71.6144 61.8384 72.1056 61.7387 72.7431L61.7341 79.7824C61.7341 81.6171 63.0778 82.6407 63.1752 82.6864ZM73.7976 82.6795C73.7976 82.6795 72.9978 82.5881 72.744 80.9933C72.318 81.8227 71.2984 82.7161 69.6013 82.7161C67.8565 82.7161 66.4653 82.1037 66.0551 80.0018C65.0128 74.7034 71.8082 74.3767 72.6806 72.8345C73.1586 71.9937 72.966 71.3471 72.9638 71.3425C72.9752 70.8627 72.8346 69.9031 70.9223 69.9031C68.9645 69.9031 68.1918 71.884 68.1918 71.884V69.3845C68.1918 69.3845 69.5537 68.3335 71.7176 68.3335C73.9699 68.3335 76.0884 69.8346 76.0884 71.7607V79.8167C76.0884 81.7085 77.5522 82.6864 77.5522 82.6864C77.5522 82.6864 75.7599 82.6795 73.7976 82.6795ZM86.294 70.5132C86.294 70.5132 85.3446 69.9534 84.0734 69.9534C83.4548 69.9534 84.1369 69.9511 83.1466 69.9488L83.1421 79.8921C83.1421 81.7131 84.5923 82.6909 84.5923 82.6909C84.5923 82.6909 82.9019 82.6818 80.8422 82.6818C80.8422 82.6818 79.6958 82.6818 79.6958 79.9172L79.7002 69.942L77.3166 69.8986C77.3166 69.8986 79.5552 68.8065 80.6224 67.9245C82.3196 66.5194 83.1489 65.0709 83.1489 65.0709L83.1466 68.3518H86.3053L86.294 70.5132ZM92.2917 80.7694C92.8627 81.0368 95.183 81.8798 96.6853 79.2661L96.6739 81.5805C96.6739 81.5805 95.7109 82.7092 92.6497 82.7092C88.9609 82.7092 86.4344 79.7847 86.4344 75.8184C86.4344 71.9183 88.4941 68.2992 92.3823 68.2787C96.1936 68.2581 98.2555 71.3631 95.4889 74.283C93.3816 76.5061 91.7298 76.1565 90.4065 77.7856C90.4065 77.7878 90.6195 79.9926 92.2917 80.7694ZM101.847 82.6955C99.6833 82.6955 98.2714 81.6811 98.2714 81.6811V79.1199C98.2714 79.1199 99.0531 81.1396 101.011 81.1396C102.921 81.1396 103.821 79.8098 103.8 78.7977C103.786 78.0734 103.387 77.3263 102.298 76.7163C101.548 76.2959 100.902 75.9006 100.359 75.4939C98.9874 74.4612 98.2781 73.3645 98.2442 71.6738C98.2034 69.7455 100.25 68.2467 102.502 68.2467C104.666 68.2467 106.093 69.3891 106.093 69.3891L106.1 71.7881C106.1 71.7881 105.304 69.8072 103.44 69.8072C101.525 69.8072 101.296 70.7759 101.317 71.2557C101.326 71.5276 101.698 72.3021 102.396 72.7362C103.621 73.4971 105.202 74.3173 106.073 75.4917C106.594 76.1999 106.936 77.0224 106.954 77.9866C107.013 80.726 104.417 82.6955 101.847 82.6955Z" fill="#D71A21"/>
</g>
</g>
</g>
<defs>
<clipPath id="clip0_1_46">
<rect width="120" height="100" fill="white"/>
</clipPath>
</defs>
</svg>
