<svg width="120" height="101" viewBox="0 0 120 101" fill="none" xmlns="http://www.w3.org/2000/svg">
<path d="M98 50.25C98 29.2624 80.9876 12.25 60 12.25C59.4278 12.25 58.8584 12.2645 58.292 12.2905L50.5191 33.6538H57.2891C61.3164 33.6538 63.4869 36.7549 62.1083 40.5423L52.5205 66.891L44.4702 66.8895L54.7589 38.6479H48.7056L38.417 66.8895H30.3638L42.4617 33.6538L49.7403 13.6531C33.738 18.1299 22 32.8186 22 50.25C22 68.1987 34.4461 83.2401 51.1781 87.2182L58.2298 67.8389H58.2356L70.6759 33.6538H85.5034C89.535 33.6538 91.704 36.7549 90.3254 40.5423L81.9009 63.6845C81.2593 65.4474 79.2001 66.8895 77.3245 66.8895H66.637L58.8714 88.2327C59.2457 88.2428 59.6228 88.25 60 88.25C80.9876 88.25 98 71.2362 98 50.25Z" fill="#0096D6"/>
<path d="M82.9932 38.6276H76.9428L68.4692 61.8767H74.5195L82.9932 38.6276Z" fill="#0096D6"/>
</svg>
